<?xml version="1.0" encoding="UTF-8"?>
<svg width="21px" height="21px" viewBox="0 0 21 21" version="1.1" xmlns="http://www.w3.org/2000/svg" xmlns:xlink="http://www.w3.org/1999/xlink">
    <title>开始备份 2</title>
    <g id="Epic02-3管理大厅-删除on" stroke="none" stroke-width="1" fill="none" fill-rule="evenodd">
        <g id="大众会议系统" transform="translate(-1512.000000, -786.000000)" fill="#1660F1" fill-rule="nonzero">
            <g id="开始备份-2" transform="translate(1513.000000, 787.000000)">
                <path d="M17.0672459,2.9071118 C16.1480814,1.98794723 15.0773447,1.26609406 13.8852043,0.76174568 C12.6504874,0.239393551 11.3393763,-0.025310276 9.98812164,-0.025310276 C8.63686699,-0.025310276 7.32575585,0.239393551 6.09103901,0.76174568 C4.89889861,1.26609406 3.8281619,1.98770394 2.90899733,2.9071118 C1.98983275,3.82651967 1.26797958,4.89701309 0.763631203,6.08915349 C0.241279074,7.32387033 -0.0234247526,8.63498147 -0.0234247526,9.98623611 C-0.0234247526,11.3374908 0.241279074,12.6486019 0.763631203,13.8833187 C1.26797958,15.0754591 1.98958946,16.1461958 2.90899733,17.0653604 C3.8281619,17.984525 4.89889861,18.7063782 6.09103901,19.2107265 C7.32575585,19.7330787 8.63686699,19.9977825 9.98812164,19.9977825 C11.3393763,19.9977825 12.6504874,19.7330787 13.8852043,19.2107265 C15.0773447,18.7063782 16.1480814,17.9847683 17.0672459,17.0653604 C17.9864105,16.1461958 18.7082637,15.0754591 19.2126121,13.8833187 C19.7349642,12.6486019 19.999668,11.3374908 19.999668,9.98623611 C19.999668,8.63498147 19.7349642,7.32387033 19.2126121,6.08915349 C18.7082637,4.89701309 17.9864105,3.82627638 17.0672459,2.9071118 Z M9.98787834,18.538262 C5.27235484,18.538262 1.4360957,14.7020029 1.4360957,9.98647941 C1.4360957,5.27095591 5.27235484,1.43469677 9.98787834,1.43469677 C14.7034018,1.43469677 18.539661,5.27095591 18.539661,9.98647941 C18.539661,14.7020029 14.7034018,18.538262 9.98787834,18.538262 Z" id="Shape"></path>
                <path d="M14.6141659,9.3717764 L8.03330508,5.19162867 C7.80826342,5.04871858 7.52301159,5.03940837 7.28907875,5.1673382 C7.05520399,5.29531501 6.90977912,5.540171 6.90977912,5.80617767 L6.90977912,14.1662302 C6.90985981,14.5686546 7.23701531,14.8949445 7.64060693,14.8949445 C7.77727173,14.8949445 7.91393653,14.8568084 8.03330508,14.7807792 L14.6141659,10.6008744 C14.8248031,10.4671086 14.9522956,10.2353336 14.9522956,9.9863254 C14.9522956,9.73734804 14.824888,9.50537401 14.6141659,9.3717764 L14.6141659,9.3717764 Z M8.37167836,12.8380271 L8.37167836,7.13462372 L12.8613972,9.9863254 L8.37167836,12.8380271 L8.37167836,12.8380271 Z" id="Shape"></path>
            </g>
        </g>
    </g>
</svg>