<?xml version="1.0" encoding="UTF-8"?>
<svg width="21px" height="20px" viewBox="0 0 21 20" version="1.1" xmlns="http://www.w3.org/2000/svg" xmlns:xlink="http://www.w3.org/1999/xlink">
    <title>编辑备份</title>
    <g id="Epic02-3管理大厅-删除on" stroke="none" stroke-width="1" fill="none" fill-rule="evenodd">
        <g id="大众会议系统" transform="translate(-1547.000000, -737.000000)" fill="#67C23A" fill-rule="nonzero">
            <g id="编辑备份" transform="translate(1547.000000, 737.000000)">
                <path d="M16.0543765,19.9969664 L3.96376945,19.9969664 C1.78753817,19.9940706 0.0240760669,18.2306085 0.021180204,16.0543772 L0.021180204,3.96377011 C0.0240760669,1.78753883 1.78753817,0.0240767278 3.96376945,0.0211808649 L10.009073,0.0211808649 C10.4445594,0.0211808649 10.7975908,0.374212333 10.7975908,0.809698718 C10.7975908,1.2451851 10.4445594,1.59821657 10.009073,1.59821657 L3.96376945,1.59821657 C2.65850965,1.60110753 1.60110687,2.65851032 1.59821591,3.96377011 L1.59821591,16.0543772 C1.60110687,17.359637 2.65850965,18.4170398 3.96376945,18.4199307 L16.0543765,18.4199307 C17.3596363,18.4170398 18.4170391,17.359637 18.4199301,16.0543772 L18.4199301,10.0090736 C18.4199301,9.57358726 18.7729615,9.22055579 19.2084479,9.22055579 C19.6439343,9.22055579 19.9969658,9.57358726 19.9969658,10.0090736 L19.9969658,16.0543772 C19.9940699,18.2306085 18.2306078,19.9940706 16.0543765,19.9969664 L16.0543765,19.9969664 Z" id="Path"></path>
                <path d="M16.6948274,1.81450408 L17.4378196,2.56128357 L18.1860812,3.30280403 L14.550162,6.93152123 L10.2028672,11.2649458 L8.56406879,11.4174571 L8.71688279,9.78190489 L13.0589081,5.44322128 L16.6948274,1.81450408 M16.6948274,0.0211811946 C16.4139423,0.0209593962 16.1445897,0.132651825 15.9465657,0.331463139 L11.9417851,4.32831107 L7.33628737,8.96149926 C7.24961148,9.04750826 7.19559026,9.16091402 7.18347337,9.2822989 L6.88838425,12.5586624 C6.87502933,12.7061419 6.9245929,12.8524065 7.02489856,12.9615231 C7.12520423,13.0706397 7.26695589,13.1324956 7.41532909,13.1318989 L7.46275412,13.1318989 L10.7456204,12.8373899 C10.8672462,12.8252971 10.980877,12.7713829 11.0670567,12.6848787 L15.6830934,8.07798552 L19.687874,4.08113757 C19.8857703,3.88385289 19.9969658,3.6161456 19.9969658,3.3369876 C19.9969658,3.0578296 19.8857703,2.79012231 19.687874,2.59283762 L18.5549426,1.44637336 L17.4378196,0.331463139 C17.2410846,0.133941134 16.9738852,0.0223557549 16.6948274,0.0211811946 Z" id="Shape"></path>
            </g>
        </g>
    </g>
</svg>