<?xml version="1.0" standalone="no"?><!DOCTYPE svg PUBLIC "-//W3C//DTD SVG 1.1//EN" "http://www.w3.org/Graphics/SVG/1.1/DTD/svg11.dtd"><svg t="1623760330137" class="icon" viewBox="0 0 1024 1024" version="1.1" xmlns="http://www.w3.org/2000/svg" p-id="5651" xmlns:xlink="http://www.w3.org/1999/xlink" width="200" height="200"><defs><style type="text/css"></style></defs><path d="M512 158.72a30.72 30.72 0 0 1 30.69952 29.568L542.72 189.44v291.84a30.72 30.72 0 0 1-61.41952 1.152L481.28 481.28V189.44a30.72 30.72 0 0 1 30.72-30.72z" fill="#67C23A" p-id="5652"></path><path d="M670.60736 196.608a30.72 30.72 0 0 1 42.50624-8.99584c136.7808 89.02656 198.75328 257.38752 152.32 413.8496-46.42816 156.45184-190.208 263.76192-353.40288 263.76192-163.20512 0-306.97984-107.31008-353.408-263.76704-46.42816-156.45696 15.5392-324.82304 152.32-413.84448a30.72 30.72 0 0 1 33.51552 51.49696c-113.98144 74.1888-165.62688 214.48704-126.93504 344.86784 38.69184 130.3808 158.50496 219.8016 294.5024 219.8016 136.00256 0 255.81568-89.4208 294.50752-219.8016 38.69184-130.3808-12.94848-270.68416-126.93504-344.86784a30.72 30.72 0 0 1-8.99072-42.50624z" fill="#67C23A" p-id="5653"></path></svg>