<?xml version="1.0" encoding="UTF-8"?>
<svg width="25px" height="20px" viewBox="0 0 25 20" version="1.1" xmlns="http://www.w3.org/2000/svg" xmlns:xlink="http://www.w3.org/1999/xlink">
    <title>同屏</title>
    <g id="Epic02-3管理大厅-删除on" stroke="none" stroke-width="1" fill="none" fill-rule="evenodd">
        <g id="大众会议系统" transform="translate(-1579.000000, -637.000000)" fill="#67C23A" fill-rule="nonzero">
            <g id="是否触发审批流" transform="translate(1493.000000, 522.000000)">
                <g id="同屏" transform="translate(86.000000, 115.000000)">
                    <path d="M24.9607369,2.91657453 L24.9607369,13.8018759 C24.9607369,15.3852125 23.7595619,16.6925176 22.2415373,16.71851 L22.1954367,16.7192421 L19.3979395,16.7192421 L19.3979395,15.2208383 L22.1954367,15.2208383 C22.8759684,15.2208383 23.4511274,14.6094691 23.4628355,13.8260378 L23.4628355,2.91657453 C23.4628355,2.12948238 22.8946282,1.51042525 22.2159259,1.49797822 L8.20941384,1.49797822 C7.52888219,1.49797822 6.9537232,2.10898138 6.94201512,2.89277872 L6.94201512,3.56565098 L5.44411373,3.56565098 L5.44411373,2.91657453 C5.44411373,1.333238 6.64528867,0.0259328377 8.16331331,-5.95023668e-05 L8.20941384,-0.000791686475 L22.1958026,-0.000791686475 C23.720413,-0.000791686475 24.936589,1.29040553 24.9607369,2.86825072 L24.9607369,2.91657453 Z" id="Path"></path>
                    <path d="M17.8796454,7.27467262 C17.856627,5.82590842 16.7203229,4.64035649 15.2957411,4.64035649 L2.61371057,4.64035649 L2.57059678,4.64072206 C1.15186083,4.66448428 0.0294408557,5.86465912 0.0294408557,7.31854134 L0.0294408557,17.3136618 L0.0298062425,17.3575305 C0.0524592596,18.8062947 1.18912872,19.9918466 2.61371057,19.9918466 L15.2957411,19.9918466 L15.3388549,19.991481 C16.7575908,19.9677188 17.8800108,18.767544 17.8800108,17.3136618 L17.8800108,7.31854134 L17.8796454,7.27467262 Z M16.4802741,17.3355961 C16.4696784,18.055043 15.9318521,18.6161969 15.2961064,18.6161969 L2.59471127,18.6161969 C1.96079243,18.6048642 1.42954286,18.0363988 1.42954286,17.3136618 L1.42954286,7.29660698 C1.44050399,6.5771601 1.97796486,6.01600616 2.61371057,6.01600616 L15.3151057,6.01600616 C15.9490246,6.0273389 16.4799088,6.5958043 16.4799088,7.31854134 L16.4799088,17.3355961 L16.4802741,17.3355961 Z" id="Shape"></path>
                </g>
            </g>
        </g>
    </g>
</svg>