<?xml version="1.0" encoding="UTF-8"?>
<svg width="20px" height="20px" viewBox="0 0 20 20" version="1.1" xmlns="http://www.w3.org/2000/svg" xmlns:xlink="http://www.w3.org/1999/xlink">
    <title>关闭</title>
    <g id="Epic02-3管理大厅-删除on" stroke="none" stroke-width="1" fill="none" fill-rule="evenodd">
        <g id="大众会议系统" transform="translate(-1508.000000, -637.000000)" fill="#1660F1" fill-rule="nonzero">
            <g id="是否触发审批流" transform="translate(1493.000000, 522.000000)">
                <g id="关闭" transform="translate(15.000000, 115.000000)">
                    <path d="M10.0094695,20.0025584 C4.49666585,20.0025584 0.0163807085,15.5222732 0.0163807085,10.0094695 C0.0163807085,4.49666585 4.49666585,0.0163807085 10.0094695,0.0163807085 C15.5222732,0.0163807085 20.0025584,4.49666585 20.0025584,10.0094695 C20.0025584,15.5222732 15.5222732,20.0025584 10.0094695,20.0025584 Z M10.0094695,1.34476714 C5.23331651,1.34476714 1.34476714,5.23331651 1.34476714,10.0094695 C1.34476714,14.7856226 5.23331651,18.6741719 10.0094695,18.6741719 C14.7856226,18.6741719 18.6741719,14.7856226 18.6741719,10.0094695 C18.6741719,5.23331651 14.7856226,1.34476714 10.0094695,1.34476714 Z" id="Shape"></path>
                    <path d="M13.7363969,15.1541595 C13.5428053,15.1541595 13.3552634,15.0755581 13.2221691,14.912309 L5.72049302,5.90337891 C5.48455321,5.61920461 5.52085164,5.20201254 5.80518936,4.96620833 C6.08952709,4.73040412 6.50695906,4.76668169 6.74289887,5.050856 L14.244575,14.0597861 C14.4805148,14.3439604 14.4442163,14.7611525 14.1598786,14.9969567 C14.0388838,15.1057894 13.8876404,15.1541595 13.7363969,15.1541595 L13.7363969,15.1541595 Z" id="Path"></path>
                    <path d="M6.22867108,15.1541595 C6.07742761,15.1541595 5.92618414,15.1057611 5.80518936,15.0029145 C5.52085164,14.7669724 5.48455321,14.3495363 5.72049302,14.0651958 L13.2221691,5.05099634 C13.4581089,4.76665582 13.8755409,4.73035703 14.1598786,4.96629917 C14.4442163,5.2022413 14.4805148,5.61967738 14.244575,5.9040179 L6.74289887,14.9182173 C6.60980462,15.0755121 6.41621298,15.1541595 6.22867108,15.1541595 L6.22867108,15.1541595 Z" id="Path"></path>
                </g>
            </g>
        </g>
    </g>
</svg>