<?xml version="1.0" standalone="no"?><!DOCTYPE svg PUBLIC "-//W3C//DTD SVG 1.1//EN" "http://www.w3.org/Graphics/SVG/1.1/DTD/svg11.dtd"><svg t="1624523561932" class="icon" viewBox="0 0 1024 1024" version="1.1" xmlns="http://www.w3.org/2000/svg" p-id="2430" xmlns:xlink="http://www.w3.org/1999/xlink" width="200" height="200"><defs><style type="text/css"></style></defs><path d="M547.778 624.121c0-58.545 52.041-162.626-32.525-162.626 0 0 0 0 0 0-6.505 0-6.505 0-6.505 0-78.060 0-32.525 104.081-32.525 162.626 6.505 84.566 65.051 84.566 71.557 0zM703.9 331.393h52.041c-13.010-312.244-481.375-312.244-487.879 0h45.535c6.505-253.698 390.304-253.698 390.304 0zM255.049 598.103v-188.647h513.9v188.647c0 260.202-513.9 260.202-513.9 0zM515.252 363.92h-273.213c-32.525 0-32.525 6.505-32.525 39.030v208.162c0 299.233 604.972 299.233 604.972 0v-208.162c0-32.525 0-39.030-26.020-39.030h-273.213z" p-id="2431" fill="#1660F1"></path></svg>