<?xml version="1.0" encoding="UTF-8"?>
<svg width="18px" height="20px" viewBox="0 0 18 20" version="1.1" xmlns="http://www.w3.org/2000/svg" xmlns:xlink="http://www.w3.org/1999/xlink">
    <title>生成会议纪要</title>
    <g id="Epic02-3管理大厅-删除on" stroke="none" stroke-width="1" fill="none" fill-rule="evenodd">
        <g id="大众会议系统" transform="translate(-1493.000000, -587.000000)" fill="#1660F1" fill-rule="nonzero">
            <g id="是否触发审批流" transform="translate(1493.000000, 522.000000)">
                <g id="生成会议纪要" transform="translate(0.000000, 65.000000)">
                    <path d="M7.33526876,20 L3.33421307,20 C1.46705375,20 0,18.5333333 0,16.6666667 L0,3.33333333 C0,1.46666667 1.46705375,0 3.33421307,0 L14.0036949,0 C15.8708542,0 17.337908,1.46666667 17.337908,3.33333333 L17.337908,10 C17.337908,10.4 17.0711709,10.6666667 16.6710654,10.6666667 C16.2709598,10.6666667 16.0042228,10.4 16.0042228,10 L16.0042228,3.33333333 C16.0042228,2.26666667 15.0706431,1.33333333 14.0036949,1.33333333 L3.33421307,1.33333333 C2.26726489,1.33333333 1.33368523,2.26666667 1.33368523,3.33333333 L1.33368523,16.6666667 C1.33368523,17.7333333 2.26726489,18.6666667 3.33421307,18.6666667 L7.33526876,18.6666667 C7.73537433,18.6666667 8.00211138,18.9333333 8.00211138,19.3333333 C8.00211138,19.7333333 7.73537433,20 7.33526876,20 Z M13.3368523,6 C13.3368523,5.6 13.0701152,5.33333333 12.6700097,5.33333333 L4.6678983,5.33333333 C4.26779273,5.33333333 4.00105569,5.6 4.00105569,6 C4.00105569,6.4 4.26779273,6.66666667 4.6678983,6.66666667 L12.6700097,6.66666667 C13.0701152,6.66666667 13.3368523,6.4 13.3368523,6 Z M10.6694818,10 C10.6694818,9.6 10.4027448,9.33333333 10.0026392,9.33333333 L4.6678983,9.33333333 C4.26779273,9.33333333 4.00105569,9.6 4.00105569,10 C4.00105569,10.4 4.26779273,10.6666667 4.6678983,10.6666667 L10.0026392,10.6666667 C10.4027448,10.6666667 10.6694818,10.4 10.6694818,10 Z M14.6705375,19.3333333 L14.6705375,12.6666667 C14.6705375,12.2666667 14.4038005,12 14.0036949,12 C13.6035893,12 13.3368523,12.2666667 13.3368523,12.6666667 L13.3368523,19.3333333 C13.3368523,19.7333333 13.6035893,20 14.0036949,20 C14.4038005,20 14.6705375,19.7333333 14.6705375,19.3333333 Z M18.0047506,16 C18.0047506,15.6 17.7380135,15.3333333 17.337908,15.3333333 L10.6694818,15.3333333 C10.2693763,15.3333333 10.0026392,15.6 10.0026392,16 C10.0026392,16.4 10.2693763,16.6666667 10.6694818,16.6666667 L17.337908,16.6666667 C17.7380135,16.6666667 18.0047506,16.4 18.0047506,16 Z" id="Shape"></path>
                </g>
            </g>
        </g>
    </g>
</svg>