<?xml version="1.0" encoding="UTF-8"?>
<svg width="17px" height="21px" viewBox="0 0 17 21" version="1.1" xmlns="http://www.w3.org/2000/svg" xmlns:xlink="http://www.w3.org/1999/xlink">
    <title>解锁</title>
    <g id="Epic02-3管理大厅-删除on" stroke="none" stroke-width="1" fill="none" fill-rule="evenodd">
        <g id="大众会议系统" transform="translate(-1626.000000, -736.000000)" fill="#67C23A" fill-rule="nonzero">
            <g id="解锁" transform="translate(1626.000000, 737.000000)">
                <path d="M8.99665301,11.7639133 L8.99665301,15.8579719 C8.99665301,16.2836286 8.65206302,16.6286182 8.22733583,16.6286182 C7.80241317,16.6286182 7.45801864,16.2836286 7.45801864,15.8579719 L7.45801864,11.7639133 C7.45801864,11.3382565 7.80260863,10.993267 8.22733583,10.993267 C8.65225848,10.993267 8.99665301,11.3382565 8.99665301,11.7639133 Z M16.3507076,9.7290233 L16.3507076,17.7965311 C16.3507076,19.0116304 15.3640427,20 14.1510391,20 L2.202777,20 C0.989773326,20 0.00310840089,19.0116304 0.00310840089,17.7965311 L0.00310840089,9.7290233 C0.00310840089,8.51392395 0.989773326,7.52555439 2.202777,7.52555439 L2.30930084,7.52555439 C2.31281906,4.90093197 2.91638905,2.92027697 4.10398336,1.63880336 C4.64012082,1.06023124 5.29314132,0.62674269 6.04506287,0.350672746 C6.69691064,0.111216333 7.42557285,-0.0101761252 8.21013565,-0.0101761252 C9.75326552,-0.0101761252 10.9606009,0.327764814 11.9007472,1.02283453 C12.4319982,1.41559787 12.8768575,1.92740414 13.2228157,2.54396035 C13.5719011,3.1659988 13.8308811,3.91549933 13.9927192,4.77131616 C14.0716837,5.18933696 13.7974581,5.5924774 13.3801582,5.67157829 C12.9628584,5.75087497 12.5604132,5.47617559 12.4814488,5.05795899 C12.014112,2.58546874 10.7366077,1.53052912 8.21013565,1.53052912 C6.94455415,1.53052912 5.9422527,1.91976816 5.23098612,2.68708597 C4.31566286,3.67467235 3.85028069,5.30250606 3.84695793,7.52555439 L14.1508436,7.52555439 C15.3638473,7.52555439 16.3507076,8.51392395 16.3507076,9.7290233 L16.3507076,9.7290233 Z M14.8120733,9.7290233 C14.8120733,9.36386695 14.5153702,9.06684702 14.1510391,9.06684702 L2.202777,9.06684702 C1.83825043,9.06684702 1.54174277,9.36386695 1.54174277,9.7290233 L1.54174277,17.7965311 C1.54174277,18.1616874 1.83844589,18.4587074 2.202777,18.4587074 L14.1510391,18.4587074 C14.5155656,18.4587074 14.8120733,18.1614916 14.8120733,17.7965311 L14.8120733,9.7290233 Z" id="Shape"></path>
            </g>
        </g>
    </g>
</svg>