<?xml version="1.0" encoding="UTF-8"?>
<svg width="24px" height="20px" viewBox="0 0 24 20" version="1.1" xmlns="http://www.w3.org/2000/svg" xmlns:xlink="http://www.w3.org/1999/xlink">
    <title>展示</title>
    <g id="Epic02-3管理大厅-删除on" stroke="none" stroke-width="1" fill="none" fill-rule="evenodd">
        <g id="大众会议系统" transform="translate(-1657.000000, -637.000000)" fill="#67C23A" fill-rule="nonzero">
            <g id="是否触发审批流" transform="translate(1493.000000, 522.000000)">
                <g id="展示" transform="translate(164.000000, 115.000000)">
                    <polygon id="Path" points="11.0862971 14.6889503 12.4927616 14.6889503 12.4927616 19.3021541 11.0862971 19.3021541"></polygon>
                    <path d="M9.46025466,18.5975129 L14.0670424,18.5975129 L14.0670424,19.9772571 L9.46025466,19.9772571 L9.46025466,18.5975129 Z M22.8443409,15.4043907 L0.734717772,15.4043907 L0.734717772,0.00546013944 L22.8443409,0.00546013944 L22.8443409,15.4043907 Z M2.11502869,14.0246465 L21.46403,14.0246465 L21.46403,1.38520432 L2.11502869,1.38520432 L2.11502869,14.0246465 Z" id="Shape"></path>
                    <path d="M10.5758701,10.4037025 L8.21465894,8.03844769 L6.14152043,10.1151365 L5.16650518,9.13845151 L8.21465894,6.08507767 L10.573408,8.44539977 L14.1287666,4.85928866 L18.3907652,9.128586 L17.4157499,10.105271 L14.133691,6.81512505 L10.5758701,10.4037025 Z M0.0205913103,0.00546013944 L23.5194439,0.00546013944 L23.5194439,1.38663086 L0.0205913103,1.38663086 L0.0205913103,0.00546013944 Z M0.00335619212,14.0391412 L23.5022088,14.0391412 L23.5022088,15.4203119 L0.00335619212,15.4203119 L0.00335619212,14.0391412 Z" id="Shape"></path>
                </g>
            </g>
        </g>
    </g>
</svg>