<?xml version="1.0" encoding="UTF-8"?>
<svg width="18px" height="20px" viewBox="0 0 18 20" version="1.1" xmlns="http://www.w3.org/2000/svg" xmlns:xlink="http://www.w3.org/1999/xlink">
    <title>上传会议纪要</title>
    <g id="Epic02-3管理大厅-删除on" stroke="none" stroke-width="1" fill="none" fill-rule="evenodd">
        <g id="大众会议系统" transform="translate(-1620.000000, -587.000000)" fill="#67C23A" fill-rule="nonzero">
            <g id="是否触发审批流" transform="translate(1493.000000, 522.000000)">
                <g id="上传会议纪要" transform="translate(127.000000, 65.000000)">
                    <path d="M8.51038096,19.6674584 L2.18615289,19.6674584 C1.01499955,19.6674584 0,18.5748219 0,17.3000792 L0,2.36737926 C0,1.09263658 0.936922674,0 2.18615289,0 L14.6784552,0 C15.8496085,0 16.8646081,1.09263658 16.8646081,2.36737926 L16.8646081,9.83372922 C16.8646081,10.1979414 16.6303774,10.6835581 16.239993,10.6835581 C15.8496086,10.6835581 15.6153779,10.2889944 15.6153779,9.83372922 L15.6153779,2.36737926 C15.6153779,1.82106098 15.1469165,1.36579573 14.6784552,1.36579573 L2.18615289,1.36579573 C1.63961467,1.36579573 1.24923022,1.82106098 1.24923022,2.36737926 L1.24923022,17.3000792 C1.24923022,17.8463975 1.71769155,18.3016627 2.18615289,18.3016627 L8.51038096,18.3016627 C8.82268853,18.3016627 9.13499603,18.5748219 9.13499603,19.0300871 C9.13499609,19.4853523 8.82268853,19.6674584 8.51038096,19.6674584 Z" id="Path"></path>
                    <path d="M12.7154911,6.34658933 L4.39499497,6.34658933 C3.97897016,6.34658933 3.56294537,6.07406225 3.56294537,5.61985047 C3.56294537,5.16563869 3.87496397,4.89311164 4.39499497,4.89311164 L12.7154911,4.89311164 C13.1315159,4.89311164 13.5475407,5.16563871 13.5475407,5.61985047 C13.5475407,6.07406223 13.1315159,6.34658933 12.7154911,6.34658933 Z M9.59530509,10.888707 L4.39499497,10.888707 C3.97897016,10.888707 3.56294537,10.61618 3.56294537,10.1619682 C3.56294537,9.70775646 3.87496397,9.43522935 4.39499497,9.43522935 L9.59530509,9.43522935 C10.0113299,9.43522935 10.4273547,9.70775646 10.4273547,10.1619682 C10.4273547,10.61618 10.0113299,10.888707 9.59530509,10.888707 Z M17.0427056,17.0319213 C16.8868702,17.0319213 16.7310348,16.9410789 16.6531172,16.8502365 L13.9259981,13.6707541 L11.1988789,16.8502365 C10.9651259,17.1227636 10.5755374,17.1227636 10.3417843,16.8502365 C10.1080313,16.5777094 10.1080313,16.1234977 10.3417843,15.8509706 L13.4584919,12.1264341 C13.5364096,12.0355918 13.692245,11.9447494 13.8480804,11.9447494 C14.0039157,11.9447494 14.1597511,12.0355918 14.2376688,12.1264341 L17.3543764,15.8509706 C17.5881295,16.1234977 17.5881295,16.5777094 17.3543764,16.8502365 C17.3543764,17.0319213 17.198541,17.0319213 17.0427056,17.0319213 L17.0427056,17.0319213 Z" id="Shape"></path>
                    <path d="M13.8954869,20 C13.5748219,20 13.2541568,19.7933492 13.2541568,19.4489311 L13.2541568,13.6627078 C13.2541568,13.3871734 13.4946556,13.111639 13.8954869,13.111639 C14.2963183,13.111639 14.5368171,13.3182898 14.5368171,13.6627078 L14.5368171,19.4489311 C14.4566508,19.7244656 14.216152,20 13.8954869,20 Z" id="Path"></path>
                </g>
            </g>
        </g>
    </g>
</svg>