<?xml version="1.0" encoding="UTF-8"?>
<svg width="24px" height="20px" viewBox="0 0 24 20" version="1.1" xmlns="http://www.w3.org/2000/svg" xmlns:xlink="http://www.w3.org/1999/xlink">
    <title>上传议程</title>
    <g id="Epic02-3管理大厅-删除on" stroke="none" stroke-width="1" fill="none" fill-rule="evenodd">
        <g id="大众会议系统" transform="translate(-1624.000000, -675.000000)" fill="#1660F1" fill-rule="nonzero">
            <g id="上传议程" transform="translate(1623.999997, 675.987815)">
                <path d="M17.9278393,7.44278932 C17.9278393,4.15040723 15.2535511,1.4814042 11.9546495,1.4814042 C8.65574784,1.4814042 5.98145967,4.15040723 5.98145967,7.44278932 C3.50728344,7.44278932 1.50156731,9.44454159 1.50156731,11.9138282 C1.50156731,14.3831147 3.50728344,16.384867 5.98145967,16.384867 L5.98145967,17.8752185 C2.94705901,17.8792007 0.391826715,15.6119743 0.0405620676,12.6039274 C-0.31070258,9.59588055 1.65363178,6.8029658 4.60762601,6.11041975 C5.25784564,2.57077643 8.34888611,0 11.9546495,0 C15.5604128,0 18.6514533,2.57077643 19.3016729,6.11041975 C22.2447155,6.81361158 24.1965707,9.60138907 23.8462547,12.6013124 C23.4959386,15.6012358 20.9540348,17.8663267 17.9278393,17.8752185 L17.9278393,16.384867 C20.4020155,16.3848669 22.4077315,14.3831147 22.4077315,11.9138282 C22.4077315,9.44454163 20.4020155,7.44278937 17.9278393,7.44278932 Z M5.98145967,16.384867 L8.96805457,16.384867 L8.96805457,17.8752133 L5.98145967,17.8752133 L5.98145967,16.384867 Z M14.9412444,16.384867 L17.9278393,16.384867 L17.9278393,17.8752133 L14.9412444,17.8752133 L14.9412444,16.384867 Z" id="Shape"></path>
                <path d="M12.5828883,10.422036 L12.5828883,18.1900136 C12.5796938,18.6016065 12.2495576,18.9351681 11.8397736,18.9408385 C11.4299895,18.9351681 11.0998533,18.6016065 11.0966589,18.1900136 L11.0966589,10.422036 L10.2584255,11.2639152 C9.96656089,11.5486514 9.50155794,11.5466613 9.21212007,11.2594371 C9.07137997,11.1214371 8.99165679,10.9324909 8.99081195,10.7349466 C8.98998047,10.5374023 9.06809742,10.3477806 9.20766138,10.2085808 L11.3181071,8.08895589 C11.4568111,7.95003501 11.6453892,7.87309196 11.8412598,7.8755007 C12.0365357,7.86999235 12.2251857,7.94686326 12.3614401,8.0874632 L14.4718858,10.2085808 C14.7553889,10.5017149 14.7534073,10.9687404 14.4674271,11.2594371 C14.3300246,11.4007894 14.1418967,11.4808593 13.9452079,11.4817011 C13.748519,11.4825429 13.5597185,11.4040862 13.4211216,11.2639152 L12.5828883,10.422036 L12.5828883,10.422036 Z" id="Path"></path>
            </g>
        </g>
    </g>
</svg>