<?xml version="1.0" encoding="UTF-8"?>
<svg width="20px" height="20px" viewBox="0 0 20 20" version="1.1" xmlns="http://www.w3.org/2000/svg" xmlns:xlink="http://www.w3.org/1999/xlink">
    <title>编组</title>
    <defs>
        <polygon id="path-1" points="0 0 20 0 20 19.99997 0 19.99997"></polygon>
    </defs>
    <g id="Epic09-4-近期会议详情" stroke="none" stroke-width="1" fill="none" fill-rule="evenodd">
        <g id="会议直播-我的议题管理(完成)" transform="translate(-413.000000, -482.000000)">
            <g id="Group" transform="translate(298.000000, 185.000000)">
                <g id="编组-4" transform="translate(40.000000, 232.000000)">
                    <g id="类型名称备份-5" transform="translate(60.000000, 0.000000)">
                        <g id="编组" transform="translate(15.000000, 65.000000)">
                            <mask id="mask-2" fill="white">
                                <use xlink:href="#path-1"></use>
                            </mask>
                            <g id="Clip-2"></g>
                            <path d="M20,15.05197 C20,15.36457 19.7352,15.61787 19.4083,15.61787 L17.0414,15.61787 L17.0414,17.88137 C17.0414,18.19387 16.7766,18.44717 16.4497,18.44717 C16.1229,18.44717 15.858,18.19387 15.858,17.88137 L15.858,15.61787 L13.4911,15.61787 C13.1643,15.61787 12.8994,15.36457 12.8994,15.05197 C12.8994,14.73947 13.1643,14.48617 13.4911,14.48617 L15.858,14.48617 L15.858,12.22267 C15.858,11.91017 16.1229,11.65687 16.4497,11.65687 C16.7766,11.65687 17.0414,11.91017 17.0414,12.22267 L17.0414,14.48617 L19.4083,14.48617 C19.7352,14.48617 20,14.73947 20,15.05197 L20,15.05197 Z M8.4789,8.80257 C8.4577,8.80967 8.4363,8.81647 8.415,8.82327 C8.4363,8.81647 8.4576,8.80967 8.4789,8.80257 L8.4789,8.80257 Z M8.6333,8.74827 C8.624,8.75167 8.6149,8.75537 8.6057,8.75867 C8.6149,8.75537 8.624,8.75167 8.6333,8.74827 L8.6333,8.74827 Z M6.5369,9.03757 C6.5668,9.03987 6.5966,9.04237 6.6266,9.04407 C6.5966,9.04237 6.5668,9.03987 6.5369,9.03757 L6.5369,9.03757 Z M6.2372,9.00597 C6.2642,9.00967 6.2915,9.01247 6.3187,9.01577 C6.2915,9.01247 6.2642,9.00967 6.2372,9.00597 L6.2372,9.00597 Z M5.8995,8.94637 C5.9185,8.95047 5.9372,8.95517 5.9562,8.95897 C5.9372,8.95517 5.9185,8.95047 5.8995,8.94637 L5.8995,8.94637 Z M5.3138,8.78497 C5.3339,8.79187 5.3545,8.79787 5.3749,8.80477 C5.3545,8.79787 5.3339,8.79187 5.3138,8.78497 L5.3138,8.78497 Z M4.9865,8.65727 C5.0093,8.66707 5.0318,8.67727 5.0548,8.68677 C5.0318,8.67727 5.0093,8.66707 4.9865,8.65727 L4.9865,8.65727 Z M4.7167,8.53167 C4.7425,8.54477 4.7686,8.55727 4.7947,8.56987 C4.7686,8.55727 4.7425,8.54477 4.7167,8.53167 L4.7167,8.53167 Z M6.9231,9.05397 C6.9208,9.05397 6.9185,9.05367 6.9162,9.05367 C6.9187,9.05367 6.9211,9.05387 6.9236,9.05387 C6.9968,9.05387 7.0695,9.05177 7.1419,9.04857 C7.0693,9.05187 6.9965,9.05397 6.9231,9.05397 L6.9231,9.05397 Z M3.3733,4.52697 C3.3733,2.65177 4.9628,1.13167 6.9236,1.13167 C8.8844,1.13167 10.4739,2.65177 10.4739,4.52697 C10.4739,6.40197 8.8844,7.92207 6.9236,7.92207 C4.9628,7.92207 3.3733,6.40197 3.3733,4.52697 L3.3733,4.52697 Z M12.4681,10.56047 L12.6099,10.42987 C11.802,9.48057 10.7312,8.74397 9.5037,8.32157 C10.7998,7.51397 11.6573,6.11667 11.6573,4.52697 C11.6573,2.02677 9.538,-3e-05 6.9236,-3e-05 C4.3093,-3e-05 2.1899,2.02677 2.1899,4.52697 C2.1899,6.18077 3.1178,7.62687 4.5023,8.41687 C4.4939,8.41197 4.4851,8.40787 4.4767,8.40297 C1.8544,9.40127 0,11.84907 0,14.71247 C0,16.73647 0.9277,18.55167 2.3965,19.79567 L2.3949,19.79707 L2.3938,19.79797 C2.5047,19.92057 2.6685,19.99997 2.8538,19.99997 C3.188,19.99997 3.459,19.74667 3.459,19.43417 C3.459,19.27527 3.3884,19.13227 3.2756,19.02947 L3.2763,19.02897 C1.9965,17.99097 1.1834,16.44287 1.1834,14.71247 C1.1834,11.58737 3.8326,9.05397 7.1006,9.05397 C8.9894,9.05397 10.6701,9.90127 11.7535,11.21887 L11.7557,11.21687 C11.864,11.33847 12.0216,11.41717 12.1997,11.41717 C12.5256,11.41717 12.7896,11.16007 12.7896,10.84267 C12.7896,10.68127 12.7206,10.53557 12.6103,10.43127 L12.4681,10.56047 Z" id="Fill-1" fill="#67C23A" mask="url(#mask-2)"></path>
                        </g>
                    </g>
                </g>
            </g>
        </g>
    </g>
</svg>