<?xml version="1.0" encoding="UTF-8"?>
<svg width="20px" height="20px" viewBox="0 0 20 20" version="1.1" xmlns="http://www.w3.org/2000/svg" xmlns:xlink="http://www.w3.org/1999/xlink">
    <title>编组</title>
    <defs>
        <polygon id="path-1" points="0 0 20 0 20 20.000191 0 20.000191"></polygon>
    </defs>
    <g id="Epic08-9-近期会议-近期会议查看" stroke="none" stroke-width="1" fill="none" fill-rule="evenodd">
        <g transform="translate(-480.000000, -1227.000000)" id="编组-2">
            <g transform="translate(333.000000, 1012.000000)">
                <g id="My-follow" transform="translate(103.000000, 0.000000)">
                    <g id="编组" transform="translate(44.000000, 215.000000)">
                        <mask id="mask-2" fill="white">
                            <use xlink:href="#path-1"></use>
                        </mask>
                        <g id="Clip-2"></g>
                        <path d="M5.71444365,5.71444365 C5.71444365,3.35728715 7.64314502,1.42868629 10.0001005,1.42868629 C12.357257,1.42868629 14.2859584,3.35728715 14.2859584,5.71444365 C14.2859584,8.07170065 12.357257,10.0001005 10.0001005,10.0001005 C7.64314502,10.0001005 5.71444365,8.07170065 5.71444365,5.71444365 Z M15.7143431,5.71424264 C15.7143431,2.57133381 13.1429088,0 10.0001005,0 C6.85729218,0 4.28585787,2.57153482 4.28585787,5.71424264 C4.28585787,7.71420244 5.28578751,9.49988442 6.85729218,10.5001156 C2.85717157,11.785883 0,15.5715248 0,20.000201 L1.42848528,20.000201 C1.42848528,15.285888 5.28578751,11.4287868 9.99989949,11.4287868 C14.7142125,11.4287868 18.5715147,15.285888 18.5715147,20.000201 L20,20.000201 C20.000201,15.5715248 17.1428284,11.785883 13.1429088,10.5001156 C14.7142125,9.50008543 15.7143431,7.71440345 15.7143431,5.71424264 Z" id="Fill-1" fill="#E30D0D" mask="url(#mask-2)"></path>
                    </g>
                </g>
            </g>
        </g>
    </g>
</svg>