<svg xmlns="http://www.w3.org/2000/svg" width="32" height="26" viewBox="0 0 32 26">
  <g id="列表-选中_all_processes_-_selected" data-name="列表-选中 all processes - selected" transform="translate(-1351 -506)">
    <rect id="矩形_8177" data-name="矩形 8177" width="32" height="26" rx="2" transform="translate(1351 506)" fill="#67C23A"/>
    <g id="todod_select_" data-name="todod_select " transform="translate(1022 478.353)">
      <rect id="矩形_8176" data-name="矩形 8176" width="16.994" height="14" transform="translate(337 33.647)" fill="none"/>
      <g id="_0菜单管理" data-name="0菜单管理" transform="translate(337 34.732)">
        <path id="路径_19371" data-name="路径 19371" d="M5.193,576.893m-.793,0a.793.793,0,1,0,.793-.793A.793.793,0,0,0,4.4,576.893Z" transform="translate(-4.4 -568.639)" fill="#fff"/>
        <path id="路径_19372" data-name="路径 19372" d="M217.963,577.685h-12.07a.793.793,0,0,1,0-1.585h12.072a.793.793,0,1,1,0,1.585Z" transform="translate(-201.757 -568.639)" fill="#fff"/>
        <path id="路径_19373" data-name="路径 19373" d="M5.193,800.393m-.793,0a.793.793,0,1,0,.793-.793A.793.793,0,0,0,4.4,800.393Z" transform="translate(-4.4 -788.409)" fill="#fff"/>
        <path id="路径_19374" data-name="路径 19374" d="M217.963,801.185h-12.07a.793.793,0,1,1,0-1.585h12.072a.793.793,0,1,1,0,1.585Z" transform="translate(-201.757 -788.409)" fill="#fff"/>
        <path id="路径_19375" data-name="路径 19375" d="M5.193,353.293m-.793,0a.793.793,0,1,0,.793-.793A.793.793,0,0,0,4.4,353.293Z" transform="translate(-4.4 -348.77)" fill="#fff"/>
        <path id="路径_19376" data-name="路径 19376" d="M217.963,354.185h-12.07a.793.793,0,1,1,0-1.585h12.072a.793.793,0,1,1,0,1.585Z" transform="translate(-201.757 -348.869)" fill="#fff"/>
        <path id="路径_19377" data-name="路径 19377" d="M5.193,129.793m-.793,0A.793.793,0,1,0,5.193,129,.793.793,0,0,0,4.4,129.793Z" transform="translate(-4.4 -129)" fill="#fff"/>
        <path id="路径_19378" data-name="路径 19378" d="M217.963,130.585h-12.07a.793.793,0,1,1,0-1.585h12.072a.793.793,0,1,1,0,1.585Z" transform="translate(-201.757 -129)" fill="#fff"/>
      </g>
    </g>
  </g>
</svg>
