<svg xmlns="http://www.w3.org/2000/svg" width="23" height="23" viewBox="0 0 23 23">
  <g id="全部流程-未选中_all_processes_-_unchecked" data-name="全部流程-未选中 all processes - unchecked" transform="translate(-156 -526)">
    <rect id="矩形_8125" data-name="矩形 8125" width="23" height="23" transform="translate(156 526)" fill="none"/>
    <path id="路径_19394" data-name="路径 19394" d="M17.816,11.406a7.006,7.006,0,0,0,.156-1.375A8.44,8.44,0,0,0,12.05,1.959a2.611,2.611,0,0,0-5.06-.01,8.36,8.36,0,0,0-5.851,9.326,2.617,2.617,0,0,0,1.508,4.762,2.231,2.231,0,0,0,.758-.145A8.434,8.434,0,0,0,9.5,18.5a8.88,8.88,0,0,0,5.748-2.622,2.611,2.611,0,0,0,.884.163,2.77,2.77,0,0,0,2.623-2.624,2.627,2.627,0,0,0-.943-2.01Zm-.707,2.007a1.166,1.166,0,0,1-.973.973.972.972,0,1,1,.973-.973Zm-11.838,0a2.627,2.627,0,0,0-2.542-2.622A6.816,6.816,0,0,1,7.106,3.647a2.611,2.611,0,0,0,.221.4c.018.027.037.052.056.081a2.576,2.576,0,0,0,.244.292c.024.024.046.05.072.074a2.654,2.654,0,0,0,.352.29h0a2.624,2.624,0,0,0,.407.222c.038.016.077.029.116.044a2.624,2.624,0,0,0,.332.1c.046.011.092.024.138.032a2.591,2.591,0,0,0,.46.046h.029a2.064,2.064,0,0,0,.4-.045c.047-.01.094-.024.141-.036a2.335,2.335,0,0,0,.269-.088c.057-.022.113-.044.17-.071s.141-.073.209-.114a2.93,2.93,0,0,0,.413-.286c.023-.019.046-.034.068-.054a2.937,2.937,0,0,0,.212-.209q.05-.054.1-.11A2.693,2.693,0,0,0,11.687,4a2.426,2.426,0,0,0,.141-.232c.024-.042.054-.081.075-.122a6.782,6.782,0,0,1,4.422,6.384,5.168,5.168,0,0,1-.057.763,2.642,2.642,0,0,0-2.751,2.529c0,.031,0,.061,0,.092a2.616,2.616,0,0,0,.433,1.441,7.059,7.059,0,0,1-4.442,1.994,6.837,6.837,0,0,1-4.763-1.94,2.458,2.458,0,0,0,.527-1.5Zm5.22-10.8a1.186,1.186,0,0,1-.973.97.947.947,0,0,1-.547-.191A.956.956,0,0,1,8.833,3.3c-.021-.021-.032-.051-.05-.073a.972.972,0,0,1-.163-.235c0-.011,0-.024-.007-.034a.968.968,0,0,1-.071-.343V2.6a.972.972,0,1,1,1.944,0ZM2.325,12.5a.978.978,0,0,1,1.3.916,1.076,1.076,0,0,1-.5.784.96.96,0,0,1-.472.19A.972.972,0,0,1,2.322,12.5Z" transform="translate(157.979 528.012)" fill="#777"/>
  </g>
</svg>
