<svg xmlns="http://www.w3.org/2000/svg" width="20" height="20.001" viewBox="0 0 20 20.001">
  <path id="路径_19456" data-name="路径 19456" d="M103.114,102.35h8.036a.714.714,0,0,1,.714.714V110.5a.714.714,0,0,1-.714.714h-8.036a.714.714,0,0,1-.714-.714v-7.435A.714.714,0,0,1,103.114,102.35Zm.894,1.429a.179.179,0,0,0-.179.179v5.647a.178.178,0,0,0,.179.177h6.25a.179.179,0,0,0,.179-.177v-5.647a.179.179,0,0,0-.179-.179Zm-.895,8.5h8.037a.714.714,0,0,1,.714.715v8.637a.714.714,0,0,1-.714.715h-8.036a.714.714,0,0,1-.714-.714V113a.715.715,0,0,1,.714-.715Zm.894,1.429a.179.179,0,0,0-.179.179v6.853a.178.178,0,0,0,.179.179h6.25a.179.179,0,0,0,.179-.179V113.89a.179.179,0,0,0-.179-.179Zm9.644-11.361h8.036a.714.714,0,0,1,.714.714v10.715a.714.714,0,0,1-.714.714H113.65a.714.714,0,0,1-.714-.714V103.063a.714.714,0,0,1,.714-.714Zm.893,1.429a.179.179,0,0,0-.179.179v8.929a.178.178,0,0,0,.179.177h6.25a.179.179,0,0,0,.179-.177v-8.929a.179.179,0,0,0-.179-.179Zm-.893,11.784h8.036a.715.715,0,0,1,.714.715v5.357a.714.714,0,0,1-.714.714H113.65a.714.714,0,0,1-.714-.714v-5.357A.714.714,0,0,1,113.65,115.563Zm.893,1.429a.179.179,0,0,0-.179.179v3.571a.178.178,0,0,0,.179.179h6.25a.179.179,0,0,0,.179-.179V117.17a.179.179,0,0,0-.179-.179Z" transform="translate(-102.4 -102.349)" fill="#1660f1"/>
</svg>
