<?xml version="1.0" encoding="UTF-8"?>
<svg width="172px" height="172px" viewBox="0 0 172 172" version="1.1" xmlns="http://www.w3.org/2000/svg" xmlns:xlink="http://www.w3.org/1999/xlink">
    <!-- Generator: Sketch 60.1 (88133) - https://sketch.com -->
    <title>未命名 5</title>
    <desc>Created with Sketch.</desc>
    <g id="页面-1" stroke="none" stroke-width="1" fill="none" fill-rule="evenodd">
        <g id="databaseweixuanzhong">
            <circle id="椭圆形" fill="#1763F7" opacity="0.2" cx="86" cy="86" r="86"></circle>
            <path d="M52.9061133,108.261892 L52.8281454,135.020367 C52.8273483,135.370223 52.6363933,135.693232 52.3268833,135.868275 C52.0173734,136.043318 51.6360751,136.043946 51.3259651,135.869923 L27.5197855,122.414378 C27.2026152,122.243702 27.0039791,121.919044 27,121.564822 L27.0779678,94.8063474 C27.0787649,94.4564916 27.2697199,94.1334821 27.5792299,93.9584392 C27.8887399,93.7833963 28.2700382,93.7827685 28.5801482,93.9567914 L52.3915256,107.412336 C52.7074808,107.583536 52.9042801,107.908441 52.9061133,108.261892 L52.9061133,108.261892 Z M52.9998413,73.4402652 L52.9217067,100.19874 C52.9209097,100.548596 52.7299547,100.871605 52.4204447,101.046648 C52.1109348,101.221691 51.7296365,101.222319 51.4195265,101.048296 L27.6133469,87.5927511 C27.2961766,87.4220749 27.0975405,87.097417 27.0935614,86.743195 L27.1715292,59.9796333 C27.1723262,59.6297774 27.3632813,59.306768 27.6727912,59.131725 C27.9823012,58.956682 28.3635996,58.9560543 28.6737095,59.1300772 L52.479889,72.5856218 C52.8053223,72.7529442 53.0064642,73.0856347 52.9998413,73.4453523 L52.9998413,73.4402652 Z" id="形状" fill="#67C23A" fill-rule="nonzero"></path>
            <path d="M83,125.377788 L82.9217496,152.02446 C82.9209497,152.372854 82.7293026,152.694514 82.418671,152.868825 C82.1080393,153.043137 81.725359,153.043762 81.4141252,152.870466 L57.5216694,139.471142 C57.2033496,139.301179 57.0039936,138.977877 57,138.625135 L57.0782505,111.978464 C57.0779764,111.628502 57.2703375,111.305086 57.5826353,111.130444 C57.894933,110.955802 58.2795358,110.95657 58.5910915,111.132457 L82.4835473,124.531782 C82.7998539,124.703059 82.9970631,125.02611 83,125.377788 L83,125.377788 Z" id="路径" fill="#67C23A" fill-rule="nonzero"></path>
            <path d="M119.093723,108.26006 L119.171675,135.020302 C119.172472,135.370181 119.36339,135.693212 119.67284,135.868266 C119.98229,136.043321 120.363514,136.043949 120.673564,135.869914 L144.480315,122.413481 C144.797424,122.242793 144.996022,121.918114 145,121.563868 L144.922047,94.8036257 C144.92232,94.4521726 144.730691,94.1273784 144.419581,93.9519919 C144.108472,93.7766053 143.725332,93.7773764 143.414962,93.9540136 L119.613407,107.410447 C119.294705,107.579512 119.095487,107.905206 119.093723,108.26006 L119.093723,108.26006 Z M119.000088,73.4361318 L119.078132,100.196374 C119.077859,100.547827 119.269488,100.872622 119.580598,101.048008 C119.891707,101.223395 120.274847,101.222624 120.585217,101.045987 L144.386772,87.5895529 C144.704673,87.4196709 144.903578,87.094489 144.906457,86.7399406 L144.828504,59.9796981 C144.827707,59.629819 144.636789,59.3067882 144.327339,59.1317337 C144.01789,58.9566792 143.636665,58.9560514 143.326616,59.1300858 L119.525061,72.5865195 C119.198501,72.7507253 118.995148,73.0818583 119.000088,73.4412192 L119.000088,73.4361318 Z" id="形状" fill="#67C23A" fill-rule="nonzero"></path>
            <path d="M89,125.375865 L89.0782347,152.024392 C89.0790344,152.37281 89.2706431,152.694493 89.5812124,152.868816 C89.8917818,153.04314 90.2743853,153.043765 90.5855567,152.870457 L114.478435,139.4702 C114.796691,139.300225 114.996007,138.976901 115,138.624135 L114.921765,111.975608 C114.920966,111.62719 114.729357,111.305507 114.418788,111.131184 C114.108218,110.95686 113.725615,110.956235 113.414443,111.129543 L89.5267803,124.5298 C89.2065099,124.698451 89.0050427,125.022028 89,125.375865 L89,125.375865 Z" id="路径" fill="#67C23A" fill-rule="nonzero"></path>
            <path d="M87.0794394,48.8654291 L110.504243,35.3574157 C110.811088,35.1810229 111,34.8557859 111,34.5039015 C111,34.152017 110.811088,33.82678 110.504243,33.6503872 L86.9146212,20.1321521 C86.6070578,19.9559493 86.2281241,19.9559493 85.9205607,20.1321521 L62.4957576,33.6401654 C62.1889116,33.8165581 62,34.1417952 62,34.4936797 C62,34.8455642 62.1889116,35.1708013 62.4957576,35.347194 L86.0853791,48.8654291 C86.3920636,49.044857 86.7727549,49.044857 87.0794394,48.8654291 L87.0794394,48.8654291 Z" id="路径" fill="#67C23A" fill-rule="nonzero"></path>
            <path d="M56.0379423,66.1597167 L79.4361998,52.5121508 C79.7412226,52.3339357 79.9290117,52.0053386 79.9290117,51.6498188 C79.9290117,51.2942989 79.7412226,50.9657018 79.4361998,50.7874867 L55.8843432,37.1295934 C55.5754162,36.9568023 55.1999963,36.9568023 54.8910693,37.1295934 L31.4928118,50.7771594 C31.1877891,50.9553745 31,51.2839716 31,51.6394914 C31,51.9950112 31.1877891,52.3236083 31.4928118,52.5018234 L55.0446684,66.1597167 C55.3535954,66.3325079 55.7290153,66.3325079 56.0379423,66.1597167 L56.0379423,66.1597167 Z M117.10893,66.1597167 L140.507188,52.5121508 C140.812211,52.3339357 141,52.0053386 141,51.6498188 C141,51.2942989 140.812211,50.9657018 140.507188,50.7874867 L116.955331,37.1295934 C116.646404,36.9568022 116.270984,36.9568022 115.962057,37.1295934 L92.5637999,50.7771594 C92.256008,50.9532551 92.0658138,51.2826028 92.0658138,51.6394914 C92.0658138,51.99638 92.256008,52.3257277 92.5637999,52.5018234 L116.115657,66.1597167 C116.425912,66.3344235 116.803795,66.3344235 117.11405,66.1597167 L117.10893,66.1597167 Z M114.083029,71.2923995 L114.006229,98.4532762 C114.004391,98.8102363 113.814348,99.1392408 113.507364,99.3169175 C113.200379,99.4945943 112.82284,99.4940955 112.516318,99.3156082 L88.9644618,85.6577149 C88.6520441,85.484472 88.4563845,85.1549317 88.452465,84.7953829 L88.5292645,57.6345062 C88.5311024,57.2775462 88.7211454,56.9485416 89.0281299,56.7708649 C89.3351143,56.5931881 89.7126535,56.5936869 90.0191754,56.7721742 L113.571032,70.4300675 C113.885427,70.6019606 114.083199,70.9317597 114.088149,71.2923995 L114.083029,71.2923995 Z M57.6046528,71.2923995 L57.6814523,98.4532762 C57.6832902,98.8102363 57.8733332,99.1392409 58.1803177,99.3169176 C58.4873022,99.4945944 58.8648414,99.4940956 59.1713633,99.3156082 L82.7232198,85.6577149 C83.0364177,85.4852896 83.2323802,85.1552394 83.2352168,84.7953829 L83.1584172,57.6345062 C83.1565793,57.2775462 82.9665363,56.9485416 82.6595519,56.7708649 C82.3525674,56.5931881 81.9750282,56.5936869 81.6685063,56.7721742 L58.1166497,70.4300675 C57.804232,70.6033104 57.6085723,70.9328506 57.6046528,71.2923995 L57.6046528,71.2923995 Z M86.4761569,118.870407 L109.869295,105.222841 C110.174317,105.044626 110.362106,104.716029 110.362106,104.360509 C110.362106,104.004989 110.174317,103.676392 109.869295,103.498177 L86.3174379,89.8402833 C86.0085109,89.6674922 85.633091,89.6674922 85.324164,89.8402833 L61.9310264,103.487849 C61.6260037,103.666064 61.4382146,103.994662 61.4382146,104.350181 C61.4382146,104.705701 61.6260037,105.034298 61.9310264,105.212513 L85.482883,118.870407 C85.7918101,119.043198 86.1672299,119.043198 86.4761569,118.870407 L86.4761569,118.870407 Z" id="形状" fill="#67C23A" fill-rule="nonzero"></path>
        </g>
    </g>
</svg>