<?xml version="1.0" standalone="no"?><!DOCTYPE svg PUBLIC "-//W3C//DTD SVG 1.1//EN" "http://www.w3.org/Graphics/SVG/1.1/DTD/svg11.dtd"><svg t="1628241519849" class="icon" viewBox="0 0 1024 1024" version="1.1" xmlns="http://www.w3.org/2000/svg" p-id="8332" xmlns:xlink="http://www.w3.org/1999/xlink" width="200" height="200"><defs><style type="text/css"></style></defs><path d="M915.830986 1016.788732H108.169014a100.957746 100.957746 0 0 1-100.957746-100.957746v-115.380282a43.267606 43.267606 0 1 1 86.535211 0v115.380282a14.422535 14.422535 0 0 0 14.422535 14.422535h807.661972a14.422535 14.422535 0 0 0 14.422535-14.422535v-115.380282a43.267606 43.267606 0 1 1 86.535211 0v115.380282a100.957746 100.957746 0 0 1-100.957746 100.957746zM512 671.224789a43.267606 43.267606 0 0 1-43.267606-43.844507v-576.901409a43.267606 43.267606 0 0 1 86.535212 0v576.901409a43.267606 43.267606 0 0 1-43.267606 43.844507z" fill="#67C23A" p-id="8333"></path><path d="M513.370141 746.294085a43.844507 43.844507 0 0 1-30.72-12.763944L192.540845 443.420845a43.267606 43.267606 0 0 1 0-61.512113 43.772394 43.772394 0 0 1 61.512113 0l290.109296 290.109296a43.267606 43.267606 0 0 1 0 61.512113 43.844507 43.844507 0 0 1-30.792113 12.763944z" fill="#67C23A" p-id="8334"></path><path d="M510.701972 746.294085a43.772394 43.772394 0 0 1-30.72-12.763944 43.267606 43.267606 0 0 1 0-61.512113l290.109296-290.109296a43.844507 43.844507 0 0 1 61.512112 0 43.267606 43.267606 0 0 1 0 61.512113l-290.109295 290.109296a43.844507 43.844507 0 0 1-30.792113 12.763944z" fill="#67C23A" p-id="8335"></path></svg>