<svg xmlns="http://www.w3.org/2000/svg" width="60" height="60" viewBox="0 0 60 60">
  <g id="组_6609" data-name="组 6609" transform="translate(-556 -259)">
    <rect id="矩形_6770" data-name="矩形 6770" width="60" height="60" rx="5" transform="translate(556 259)" fill="#eff4fa"/>
    <g id="组_6632" data-name="组 6632" transform="translate(507 178)">
      <path id="路径_14253" data-name="路径 14253" d="M90.786,96H67.214A3.365,3.365,0,0,0,64,99.346v22.309A3.365,3.365,0,0,0,67.214,125H90.786A3.365,3.365,0,0,0,94,121.656V99.346A3.365,3.365,0,0,0,90.786,96ZM67.214,98.231H90.786a1.034,1.034,0,0,1,1.071,1.115v1.115H66.143V99.346a1.034,1.034,0,0,1,1.071-1.115Zm24.643,17.847H86.5a3.349,3.349,0,0,1,0-6.693h5.357Zm-5.357-8.7a5.228,5.228,0,0,0-5.357,5.354,5.417,5.417,0,0,0,5.357,5.577h5.357v3.346a1.034,1.034,0,0,1-1.071,1.115H67.214a1.034,1.034,0,0,1-1.071-1.115V102.693H91.857v4.685Z" fill="#1660f1"/>
      <path id="路径_14254" data-name="路径 14254" d="M724.726,526.326m-1.526,0a1.526,1.526,0,1,0,1.526-1.526A1.526,1.526,0,0,0,723.2,526.326Z" transform="translate(-637.358 -413.535)" fill="#1660f1"/>
    </g>
  </g>
</svg>
