<svg xmlns="http://www.w3.org/2000/svg" width="24" height="30" viewBox="0 0 24 30">
  <g id="组_12885" data-name="组 12885" transform="translate(21430 4898)">
    <path id="路径_19510" data-name="路径 19510" d="M102.4,0h24V30l-12-8-12,8Z" transform="translate(-21532.4 -4898)" fill="#cad9f8"/>
    <path id="路径_19511" data-name="路径 19511" d="M15.377,40.036a1.634,1.634,0,0,1-.684-.18l-4.686-2.343L5.281,39.856a1.438,1.438,0,0,1-1.515-.107,1.489,1.489,0,0,1-.577-1.442l.975-5.046L.452,29.8a1.59,1.59,0,0,1-.4-1.515,1.434,1.434,0,0,1,1.188-1.008L6.4,26.338l2.31-4.689a1.473,1.473,0,0,1,1.3-.828,1.432,1.432,0,0,1,1.3.828l2.306,4.686,5.157.9a1.4,1.4,0,0,1,1.155,1.008,1.471,1.471,0,0,1-.36,1.515l-3.718,3.5.938,5.046a1.46,1.46,0,0,1-.577,1.442A1.277,1.277,0,0,1,15.377,40.036Z" transform="translate(-21428 -4917.321)" fill="#5f6f8f"/>
  </g>
</svg>
