<svg xmlns="http://www.w3.org/2000/svg" width="60" height="60" viewBox="0 0 60 60">
  <g id="组_6609" data-name="组 6609" transform="translate(-556 -259)">
    <rect id="矩形_6770" data-name="矩形 6770" width="60" height="60" rx="5" transform="translate(556 259)" fill="#eff4fa"/>
    <path id="路径_14255" data-name="路径 14255" d="M16.065,29.985A12.993,12.993,0,0,1,2.913,16.657a1.117,1.117,0,0,1,.3-.84,1.363,1.363,0,0,1,.961-.39,1.279,1.279,0,0,1,.961.39,1.107,1.107,0,0,1,.285.84A10.486,10.486,0,0,0,8.5,24.423a10.74,10.74,0,0,0,7.822,3.058,11.448,11.448,0,0,0,11.44-11.424c0-6.312-4.489-10.885-10.675-10.885A1.212,1.212,0,0,1,15.84,3.928a1.254,1.254,0,0,1,.315-.855,1.224,1.224,0,0,1,.931-.4h.21A12.824,12.824,0,0,1,26.529,6.5a13.136,13.136,0,0,1,3.723,9.58A13.958,13.958,0,0,1,16.305,30,1.141,1.141,0,0,0,16.065,29.985ZM1.5,14.408A1.233,1.233,0,0,1,.256,13.163,13.1,13.1,0,0,1,13.438,0,1.246,1.246,0,0,1,14.7,1.244v11.9a1.245,1.245,0,0,1-.045.39,1.171,1.171,0,0,1-1.2.855H1.5Zm10.675-2.5V2.564a10.413,10.413,0,0,0-6.3,3.043,10.387,10.387,0,0,0-3.048,6.3Z" transform="translate(570.744 274)" fill="#67C23A"/>
  </g>
</svg>
