<svg id="组_12492" data-name="组 12492" xmlns="http://www.w3.org/2000/svg" width="20" height="15.317" viewBox="0 0 20 15.317">
  <path id="路径_19387" data-name="路径 19387" d="M0,0,.766,0H2.3a.677.677,0,0,1,.766.766V2.3a.677.677,0,0,1-.766.766H.766A.677.677,0,0,1,0,2.3V.766A.677.677,0,0,1,.766,0Z" fill="#1660f1"/>
  <path id="路径_19388" data-name="路径 19388" d="M276.179,0m.766,0H290.73a.677.677,0,0,1,.766.766V2.3a.677.677,0,0,1-.766.766H276.945a.677.677,0,0,1-.766-.766V.766A.677.677,0,0,1,276.945,0Z" transform="translate(-271.495)" fill="#1660f1"/>
  <path id="路径_19389" data-name="路径 19389" d="M0,368.238m.766,0H2.3a.677.677,0,0,1,.766.766v1.532a.677.677,0,0,1-.766.766H.766A.677.677,0,0,1,0,370.536V369A.677.677,0,0,1,.766,368.238Z" transform="translate(0 -362.112)" fill="#1660f1"/>
  <path id="路径_19390" data-name="路径 19390" d="M276.179,368.238m.766,0H290.73a.677.677,0,0,1,.766.766v1.532a.677.677,0,0,1-.766.766H276.945a.677.677,0,0,1-.766-.766V369A.677.677,0,0,1,276.945,368.238Z" transform="translate(-271.495 -362.112)" fill="#1660f1"/>
  <path id="路径_19391" data-name="路径 19391" d="M0,736.477m.766,0H2.3a.677.677,0,0,1,.766.766v1.532a.677.677,0,0,1-.766.766H.766A.677.677,0,0,1,0,738.774v-1.532A.677.677,0,0,1,.766,736.477Z" transform="translate(0 -724.223)" fill="#1660f1"/>
  <path id="路径_19392" data-name="路径 19392" d="M276.179,736.477m.766,0H290.73a.677.677,0,0,1,.766.766v1.532a.677.677,0,0,1-.766.766H276.945a.677.677,0,0,1-.766-.766v-1.532A.677.677,0,0,1,276.945,736.477Z" transform="translate(-271.495 -724.223)" fill="#1660f1"/>
</svg>
