<svg xmlns="http://www.w3.org/2000/svg" width="23" height="23" viewBox="0 0 23 23">
  <g id="我的流程-选中_me-Selected" data-name="我的流程-选中 me-Selected" transform="translate(-310 -624)">
    <rect id="矩形_7964" data-name="矩形 7964" width="23" height="23" transform="translate(310 624)" fill="none"/>
    <g id="组_11857" data-name="组 11857" transform="translate(1.096 2.285)">
      <path id="我" d="M57.007,25.363a4.97,4.97,0,1,1,4.97-4.97A4.975,4.975,0,0,1,57.007,25.363Zm0-8.7a3.727,3.727,0,1,0,3.727,3.727A3.732,3.732,0,0,0,57.007,16.666ZM63.913,34.7H50.1A2.1,2.1,0,0,1,48,32.6a6.568,6.568,0,0,1,6.549-6.595h4.917a6.557,6.557,0,0,1,6.549,6.549,2.115,2.115,0,0,1-2.1,2.148Zm-9.364-7.454a5.313,5.313,0,0,0-5.306,5.306.873.873,0,0,0,.861.906H63.913a.861.861,0,0,0,.86-.86,5.322,5.322,0,0,0-5.306-5.352H54.549Z" transform="translate(263 608.291)" fill="#1763f7"/>
      <path id="路径_19219" data-name="路径 19219" d="M6.085,2.514a.429.429,0,0,1-.429-.429A1.73,1.73,0,0,0,3.929.357.429.429,0,0,1,3.5-.071.429.429,0,0,1,3.929-.5,2.588,2.588,0,0,1,6.514,2.085.429.429,0,0,1,6.085,2.514Z" transform="translate(316.809 626.381)" fill="#1763f7"/>
    </g>
  </g>
</svg>
