<?xml version="1.0" encoding="UTF-8"?>
<svg width="197px" height="178px" viewBox="0 0 197 178" version="1.1" xmlns="http://www.w3.org/2000/svg" xmlns:xlink="http://www.w3.org/1999/xlink">
    <!-- Generator: Sketch 60.1 (88133) - https://sketch.com -->
    <title>未命名</title>
    <desc>Created with Sketch.</desc>
    <g id="页面-1" stroke="none" stroke-width="1" fill="none" fill-rule="evenodd">
        <circle id="椭圆形" fill="#1763F7" opacity="0.2" cx="108" cy="92" r="86"></circle>
        <g id="chicangzhouqi" fill="#1763F7" fill-rule="nonzero">
            <path d="M97.9994862,-4.95101237e-05 C145.361024,-4.95101237e-05 183.753673,38.3926509 183.753673,85.762565 L175.45846,85.762565 C175.466606,52.3031647 146.259397,17.3168524 113.608697,10.0049888 C80.9579977,2.69312519 41.6047885,25.0131831 27.34188,55.2803431 L20.4054699,49.1788046 C34.5709419,19.1486562 68.372844,-4.95101237e-05 97.9994862,-4.95101237e-05 Z M178.610255,105.192821 L161.171622,85.762565 L196.048887,85.762565 L178.610255,105.201197 L178.610255,105.192821 Z M12.2952135,85.7793171 L20.5902561,85.7793171 C20.5821098,119.238717 49.7893189,154.22503 82.4400186,161.536894 C115.090718,168.848757 155.727316,147.074771 168.706836,116.261539 L175.643417,122.363077 C161.477945,152.393055 131.252715,171.549628 98.0494007,171.54195 C50.6878627,171.54195 12.2952135,133.149231 12.2952135,85.7793171 Z M92.5857712,26.000019 C95.4950127,25.996851 98.2862102,27.1501681 100.34461,29.2059741 L100.34461,29.2059741 L123.24109,52.1117105 L121.124116,54.2285974 C119.296193,56.0571434 119.296193,59.0210615 121.124116,60.8496075 C122.044872,61.7601239 123.253843,62.2141069 124.44751,62.2141069 C125.653931,62.2141069 126.862902,61.7601239 127.770905,60.852158 L127.770905,60.852158 L129.875127,58.7352711 L152.794562,81.643558 C157.064219,85.9206897 157.064219,92.9140679 152.820068,97.1580435 C150.762317,99.2163841 147.969248,100.370095 145.058679,100.363979 C142.142703,100.367096 139.344392,99.2142509 137.276885,97.1580435 L137.276885,97.1580435 L122.223412,82.1077428 L121.567915,82.7657631 L121.652084,82.7989191 L108.057538,96.3929037 L107.973369,96.3571972 L99.5207751,104.79924 L91.1880581,113.141815 L90.6014266,113.728422 L75.0939519,129.235256 C75.0709967,129.270963 75.0352887,129.283715 74.9995807,129.316871 C74.831243,129.485202 74.6629053,129.617826 74.4843653,129.75045 C74.4614101,129.75045 74.4486573,129.760652 74.4486573,129.760652 C73.8033627,130.214635 73.0254384,130.551297 72.1403901,130.671169 L72.1403901,130.671169 L54.8781222,132.953836 C53.2765986,133.168811 51.6663535,132.625294 50.5227481,131.483736 C49.3791427,130.342178 48.8327849,128.732953 49.0449651,127.131122 L49.0449651,127.131122 L51.3149738,109.867016 C51.4093449,108.982005 51.7460204,108.216865 52.2000221,107.561395 C52.2229772,107.561395 52.2229772,107.53589 52.2357301,107.523138 C52.3556069,107.344605 52.4984389,107.178825 52.6540238,107.010494 C52.6871812,106.98754 52.7024847,106.951834 52.7381927,106.913577 L52.7381927,106.913577 L61.9789132,97.6732377 L66.4730202,93.1793164 L80.0675663,79.5853318 L99.8778552,59.7988155 L84.8269327,44.7459643 C80.557276,40.4662821 80.557276,33.4729039 84.8269327,29.2059741 C86.8840591,27.1482605 89.676085,25.9946012 92.5857712,26.000019 Z M57.6863014,112.649575 L55.9060025,126.075229 L70.7426769,124.116471 L75.8004602,119.046144 L57.6863014,112.649575 Z M65.1237679,103.970339 L62.0018684,107.092109 L81.0469858,113.812587 L81.0495363,113.810037 L84.1688853,110.690817 L65.1237679,103.970339 Z M73.4590355,95.6609199 L70.372844,98.7469839 L89.4179614,105.464912 L89.4154109,105.467462 L92.5016024,102.381398 L73.4590355,95.6609199 Z M81.8019549,87.2826386 L81.4780323,87.6039974 L78.718314,90.3891064 L97.761,97.0949505 L100.847072,94.0005665 L81.8019549,87.2826386 Z M92.5755689,32.6821082 C91.434177,32.6726447 90.3367389,33.1217939 89.5296243,33.9288752 C88.7225097,34.7359564 88.273342,35.8333492 88.2828059,36.9746939 C88.2811253,38.112466 88.7316428,39.2043067 89.5352877,40.0097487 L89.5352877,40.0097487 L141.975038,92.4575344 C142.775917,93.2838855 143.865011,93.7123638 145.025521,93.7123638 C146.173278,93.7123638 147.259822,93.2583808 148.060701,92.4575344 C148.874334,91.6439357 149.30283,90.5574372 149.328335,89.4199293 C149.328335,88.2620176 148.884536,87.1857209 148.083657,86.3848745 L148.083657,86.3848745 L129.459383,67.7817745 C127.916288,68.5112078 126.217607,68.9192824 124.460263,68.9192824 C121.441858,68.9273583 118.545126,67.7301532 116.41321,65.5934745 C112.993107,62.148178 112.120888,56.9191689 114.237573,52.5503907 L114.237573,52.5503907 L95.610749,33.9243364 C94.7971167,33.1107377 93.7335284,32.6821082 92.5755689,32.6821082 Z M90.3259649,78.8661004 L87.2295711,81.9853204 L106.19052,88.6675417 L109.286913,85.5483217 L90.3259649,78.8661004 Z M17.4466665,66.3490609 L34.8769227,85.7793171 L0,85.7793171 L17.4386323,66.3490609 L17.4466665,66.3490609 Z M102.520247,66.5983582 L95.5138273,73.6044887 L114.561495,80.3224165 L115.398083,79.4756618 L102.520247,66.5983582 Z" id="形状"></path>
        </g>
    </g>
</svg>