<?xml version="1.0" standalone="no"?><!DOCTYPE svg PUBLIC "-//W3C//DTD SVG 1.1//EN" "http://www.w3.org/Graphics/SVG/1.1/DTD/svg11.dtd"><svg t="1628241605602" class="icon" viewBox="0 0 1024 1024" version="1.1" xmlns="http://www.w3.org/2000/svg" p-id="8334" xmlns:xlink="http://www.w3.org/1999/xlink" width="200" height="200"><defs><style type="text/css"></style></defs><path d="M527.787877 883.897065c-6.49923 6.017805-9.748845 6.017805-19.49769 6.017805a47.179594 47.179594 0 0 1-19.49769-6.017805c-12.99846-12.577213-338.02013-364.378118-336.997103-543.648541C143.370466 144.850382 287.978331-0.599975 508.530899 0.001805s355.05052 147.917657 355.832834 340.246719c0.902671 190.944966-323.577397 531.071328-336.575856 543.648541zM508.290187 78.293454c-180.173094 0-279.406706 114.338303-279.406706 261.95507 0 128.841214 214.474585 378.158892 279.406706 453.561994 64.93212-75.403102 281.151869-324.961493 281.151869-453.561994 0-150.866382-100.978775-261.894892-281.151869-261.95507z m6.49923 380.746549a152.852258 152.852258 0 0 1-154.416887-143.945906 157.245256 157.245256 0 0 1 313.407306-3.129259 158.087748 158.087748 0 0 1-158.990419 147.075165z m0-231.926221a85.031591 85.031591 0 1 0 90.868862 84.851056 90.989218 90.989218 0 0 0-90.868862-84.851056z m-240.170614 499.899096c18.053416-3.189437 34.963449 2.346944 37.129859 22.085346s-15.586116 22.626948-28.584576 25.756207c-32.135081 5.476203-122.101272 27.20048-122.16145 70.709213s109.644415 106.99658 347.287551 108.741744 343.797223-44.53176 346.625592-108.741744c1.143383-29.306712-72.574733-61.742684-138.770593-77.088087a26.538522 26.538522 0 0 1-20.941963-30.871342c4.092108-14.262199 19.016265-18.053416 37.490928-16.308252 114.338303 18.053416 200.152208 74.019007 200.152208 124.267681 0 81.721798-117.046315 181.737724-418.11712 177.344726C235.202177 1022.90837 90.413779 927.285442 90.413779 845.563644c-2.527478-57.048795 97.187557-112.593139 184.205024-118.550766z" fill="#707070" p-id="8335"></path></svg>