<svg xmlns="http://www.w3.org/2000/svg" width="60" height="60" viewBox="0 0 60 60">
  <g id="组_6609" data-name="组 6609" transform="translate(-556 -259)">
    <rect id="矩形_6770" data-name="矩形 6770" width="60" height="60" rx="5" transform="translate(556 259)" fill="#eff4fa"/>
    <path id="路径_14249" data-name="路径 14249" d="M141.5,15.77l-7.425,7.29a10.177,10.177,0,0,0,0,14.579,10.638,10.638,0,0,0,14.849,0,10.177,10.177,0,0,0,0-14.579Zm0-4.165,9.546,9.373a13.085,13.085,0,0,1,0,18.745,13.677,13.677,0,0,1-19.092,0,13.085,13.085,0,0,1,0-18.745Zm1.5,15.8h3.75L140,36.978V30.351h-3.75L143,20.778Z" transform="translate(445 261.395)" fill="#67C23A"/>
  </g>
</svg>
