<svg id="组_5920" data-name="组 5920" xmlns="http://www.w3.org/2000/svg" width="60" height="60" viewBox="0 0 60 60">
  <rect id="矩形_6771" data-name="矩形 6771" width="60" height="60" rx="5" fill="#eff4fa"/>
  <g id="组_6657" data-name="组 6657" transform="translate(14.999 14)">
    <path id="路径_14269" data-name="路径 14269" d="M197.854,149.333H177.229a2.768,2.768,0,0,0-2.813,2.824v1.882h-.937a2.768,2.768,0,0,0-2.812,2.824V178.51a2.768,2.768,0,0,0,2.813,2.824h24.375a2.768,2.768,0,0,0,2.813-2.824V152.156a2.768,2.768,0,0,0-2.814-2.823Zm-25.313,29.176V156.862a.887.887,0,0,1,.938-.941h.937v22.588a2.793,2.793,0,0,0,.188.941h-1.125a.887.887,0,0,1-.937-.941Zm26.25,0a.887.887,0,0,1-.938.941H177.229a.887.887,0,0,1-.937-.941V152.156a.887.887,0,0,1,.938-.941h20.625a.887.887,0,0,1,.938.941Z" transform="translate(-170.666 -149.333)" fill="#67C23A"/>
    <path id="路径_14270" data-name="路径 14270" d="M378.6,309.992h-15a.944.944,0,0,0,0,1.887h15a.944.944,0,0,0,0-1.887Zm0,5.662h-15a.944.944,0,0,0,0,1.887h15a.944.944,0,0,0,0-1.887Zm-14.063-9.437h3.75a1.887,1.887,0,0,0,1.875-1.887v-3.775a1.887,1.887,0,0,0-1.875-1.888h-3.75a1.887,1.887,0,0,0-1.875,1.888v3.775a1.887,1.887,0,0,0,1.88,1.887Zm0-5.662h3.75v3.775h-3.75Z" transform="translate(-354.228 -292.104)" fill="#67C23A"/>
  </g>
</svg>
