<svg xmlns="http://www.w3.org/2000/svg" width="57.322" height="60" viewBox="0 0 57.322 60">
  <g id="组_12489" data-name="组 12489" transform="translate(-22.8)">
    <path id="路径_19379" data-name="路径 19379" d="M653.075,455.35a10.175,10.175,0,1,1,10.175-10.175A10.183,10.183,0,0,1,653.075,455.35Zm0-17.617a7.437,7.437,0,1,0,7.436,7.437A7.447,7.447,0,0,0,653.075,437.733Zm0,0" transform="translate(-583.127 -409.094)" fill="#cbcbcb"/>
    <path id="路径_19380" data-name="路径 19380" d="M187.483,379.234v-14.68a1.963,1.963,0,0,0-1.96-1.954H150.3v16.634a14.725,14.725,0,0,0,14.68,14.68h7.829A14.72,14.72,0,0,0,187.483,379.234Zm0,0" transform="translate(-120.257 -340.175)" fill="#eceef2"/>
    <path id="路径_19381" data-name="路径 19381" d="M46.572,16.453a1.417,1.417,0,0,1-1.421-1.412V1.412a1.421,1.421,0,0,1,2.843,0V15.035a1.419,1.419,0,0,1-1.421,1.418Zm-10.161,0a1.417,1.417,0,0,1-1.421-1.412V6.961a1.421,1.421,0,0,1,2.843,0v8.074a1.415,1.415,0,0,1-1.421,1.418Zm20.317-.51a1.417,1.417,0,0,1-1.421-1.412V6.457a1.421,1.421,0,0,1,2.843,0v8.074A1.41,1.41,0,0,1,56.728,15.943ZM66.889,60H26.256a1.412,1.412,0,1,1,0-2.824H66.889a1.412,1.412,0,1,1,0,2.824Zm-13.2-5.045H39.46a16.6,16.6,0,0,1-11.765-4.863A16.377,16.377,0,0,1,22.8,38.4V38.35a1.421,1.421,0,0,1,2.843,0V38.4A13.788,13.788,0,0,0,39.46,52.131H53.679A13.788,13.788,0,0,0,67.5,38.4V23.262a.612.612,0,0,0-.607-.6H26.256a.612.612,0,0,0-.607.6v2.953a1.421,1.421,0,0,1-2.843,0V23.262a3.45,3.45,0,0,1,3.456-3.434H66.895a3.45,3.45,0,0,1,3.456,3.434V38.4a16.387,16.387,0,0,1-4.895,11.689A16.635,16.635,0,0,1,53.685,54.955Z" transform="translate(0)" fill="#cbcbcb"/>
    <path id="路径_19382" data-name="路径 19382" d="M24.169,357.975a1.366,1.366,0,0,1-1.369-1.369v-12.1a1.369,1.369,0,0,1,2.738,0v12.1A1.363,1.363,0,0,1,24.169,357.975Zm30.877-9.9a1.366,1.366,0,0,1-1.369-1.369v-6.834a1.369,1.369,0,1,1,2.738,0v6.84A1.369,1.369,0,0,1,55.046,348.073Zm0,0" transform="translate(0 -318.362)" fill="#cbcbcb"/>
    <path id="路径_19383" data-name="路径 19383" d="M513.375,506.489h-8.561a.615.615,0,0,1-.614-.614v-8.561a.615.615,0,0,1,.614-.614h8.561a.615.615,0,0,1,.614.614v8.561A.615.615,0,0,1,513.375,506.489Zm0,0" transform="translate(-453.01 -467.417)" fill="#d9dee5"/>
    <path id="路径_19384" data-name="路径 19384" d="M490.375,485.127h-7.829a2.347,2.347,0,0,1-2.346-2.346v-7.834a2.347,2.347,0,0,1,2.346-2.346h7.829a2.347,2.347,0,0,1,2.346,2.346v7.829A2.356,2.356,0,0,1,490.375,485.127Zm-7.437-2.744h7.044v-7.045h-7.044Zm0,0" transform="translate(-430.362 -444.677)" fill="#cbcbcb"/>
  </g>
</svg>
