<svg id="组_6609" data-name="组 6609" xmlns="http://www.w3.org/2000/svg" width="60" height="60" viewBox="0 0 60 60">
  <rect id="矩形_6770" data-name="矩形 6770" width="60" height="60" rx="5" fill="#eff4fa"/>
  <g id="组_6634" data-name="组 6634" transform="translate(14.984 15)">
    <path id="路径_14258" data-name="路径 14258" d="M68.195,56.024a1.058,1.058,0,0,0-.411-.816l-6.37-9.184a2.845,2.845,0,0,0-2.26-1.224H47.236a4.305,4.305,0,0,0-2.671,1.429l-5.959,9.184v.408a1.521,1.521,0,0,0-.2,1.02v15.51A2.49,2.49,0,0,0,40.866,74.8H65.934A2.49,2.49,0,0,0,68.4,72.351V56.841A1.534,1.534,0,0,1,68.195,56.024Zm-24.452-4.49h19.11l2.055,2.857H41.893Zm2.671-4.082a1.07,1.07,0,0,1,.822-.408H59.153c.205,0,.411.2.616.408l1.438,2.041H44.975Zm19.521,25.1H40.66a.44.44,0,0,1-.411-.408V68.269h5.959a1.021,1.021,0,0,0,0-2.041H40.455V64.8h7.192a.967.967,0,0,0,1.027-1.02c0-.612-.411-.612-1.027-.612H40.455V61.943H49.5a1.021,1.021,0,0,0,0-2.041H40.455V57.045h25.89V72.351c-.205.2-.205.2-.411.2Z" transform="translate(-38.384 -44.8)" fill="#1660f1"/>
    <path id="路径_14259" data-name="路径 14259" d="M495.6,537.773h0l-3.271-3.067a1.012,1.012,0,1,0-1.431,1.431l1.227,1.227h-4.7a1.022,1.022,0,0,0,0,2.044h4.906l-1.431,1.226a1.259,1.259,0,0,0-.2,1.431,1.063,1.063,0,0,0,.818.409.751.751,0,0,0,.613-.2l3.271-2.862a1.062,1.062,0,0,0,.409-.818C496.008,538.182,495.8,537.978,495.6,537.773Z" transform="translate(-471.966 -518.798)" fill="#1660f1"/>
  </g>
</svg>
