<?xml version="1.0" standalone="no"?><!DOCTYPE svg PUBLIC "-//W3C//DTD SVG 1.1//EN" "http://www.w3.org/Graphics/SVG/1.1/DTD/svg11.dtd"><svg class="icon" width="200px" height="200.00px" viewBox="0 0 1024 1024" version="1.1" xmlns="http://www.w3.org/2000/svg"><path d="M408 915.2h-86.4c-86.4 0-155.2-70.4-155.2-155.2V294.4c0-86.4 70.4-155.2 155.2-155.2h369.6c86.4 0 155.2 70.4 155.2 155.2v147.2c0 16-12.8 28.8-28.8 28.8s-28.8-12.8-28.8-28.8v-147.2c0-54.4-44.8-99.2-99.2-99.2h-368c-54.4 0-99.2 44.8-99.2 99.2v465.6c0 54.4 44.8 99.2 99.2 99.2h86.4c16 0 28.8 12.8 28.8 28.8 0 14.4-12.8 27.2-28.8 27.2z" fill="#67C23A" /><path d="M408 916.8h-86.4c-86.4 0-156.8-70.4-156.8-156.8V294.4c0-86.4 70.4-156.8 156.8-156.8h369.6c86.4 0 156.8 70.4 156.8 156.8v147.2c0 16-14.4 30.4-30.4 30.4s-30.4-14.4-30.4-30.4v-147.2c0-52.8-43.2-96-96-96H321.6c-52.8 0-96 43.2-96 96v465.6c0 52.8 43.2 96 96 96h86.4c16 0 30.4 14.4 30.4 30.4 0 17.6-14.4 30.4-30.4 30.4zM321.6 140.8c-84.8 0-153.6 68.8-153.6 153.6v465.6c0 84.8 68.8 153.6 153.6 153.6h86.4c14.4 0 27.2-11.2 27.2-27.2 0-14.4-11.2-27.2-27.2-27.2h-86.4c-56 0-100.8-44.8-100.8-100.8v-464c0-56 44.8-100.8 100.8-100.8h369.6c56 0 100.8 44.8 100.8 100.8v147.2c0 14.4 11.2 27.2 27.2 27.2s27.2-11.2 27.2-27.2v-147.2c0-84.8-68.8-153.6-153.6-153.6H321.6z" fill="#67C23A" /><path d="M552 372.8H342.4c-16 0-28.8-12.8-28.8-28.8s12.8-28.8 28.8-28.8h209.6c16 0 28.8 12.8 28.8 28.8s-12.8 28.8-28.8 28.8z m-49.6 142.4h-160c-16 0-28.8-12.8-28.8-28.8s12.8-28.8 28.8-28.8h160c16 0 28.8 12.8 28.8 28.8s-12.8 28.8-28.8 28.8z" fill="#67C23A" /><path d="M502.4 516.8h-160c-16 0-30.4-14.4-30.4-30.4s14.4-30.4 30.4-30.4h160c16 0 30.4 14.4 30.4 30.4s-12.8 30.4-30.4 30.4z m-160-57.6c-14.4 0-27.2 11.2-27.2 27.2s11.2 27.2 27.2 27.2h160c14.4 0 27.2-11.2 27.2-27.2s-11.2-27.2-27.2-27.2h-160z m209.6-83.2H342.4c-16 0-30.4-14.4-30.4-30.4s14.4-30.4 30.4-30.4h209.6c16 0 30.4 14.4 30.4 30.4s-12.8 30.4-30.4 30.4z m-209.6-57.6c-14.4 0-27.2 11.2-27.2 27.2s11.2 27.2 27.2 27.2h209.6c14.4 0 27.2-11.2 27.2-27.2s-11.2-27.2-27.2-27.2H342.4z" fill="#67C23A" /><path d="M827.2 908.8H550.4c-32 0-59.2-27.2-59.2-59.2 0-67.2 46.4-123.2 108.8-137.6l14.4-38.4c-20.8-20.8-33.6-48-33.6-78.4a107.2 107.2 0 0 1 214.4 0c0 30.4-11.2 57.6-33.6 76.8l14.4 38.4c62.4 14.4 108.8 72 108.8 137.6 1.6 33.6-24 60.8-57.6 60.8z m-137.6-363.2c-27.2 0-51.2 22.4-51.2 51.2 0 17.6 9.6 33.6 25.6 43.2 11.2 6.4 16 20.8 12.8 33.6l-27.2 72c-3.2 9.6-12.8 17.6-24 19.2-43.2 4.8-76.8 40-76.8 84.8 0 1.6 1.6 1.6 1.6 1.6h276.8c1.6 0 1.6-1.6 1.6-1.6 0-43.2-32-80-75.2-84.8-11.2-1.6-19.2-8-24-17.6L704 673.6c-4.8-12.8 0-27.2 11.2-33.6 16-9.6 24-25.6 24-43.2 1.6-28.8-22.4-51.2-49.6-51.2z" fill="#67C23A" /><path d="M827.2 910.4H550.4c-33.6 0-60.8-27.2-60.8-60.8 0-67.2 44.8-124.8 110.4-139.2l12.8-35.2c-20.8-20.8-33.6-49.6-33.6-78.4 0-60.8 49.6-110.4 110.4-110.4s110.4 49.6 110.4 110.4c0 30.4-11.2 57.6-32 78.4l12.8 36.8c64 16 108.8 73.6 108.8 139.2-1.6 32-28.8 59.2-62.4 59.2z m-137.6-420.8c-57.6 0-105.6 48-105.6 105.6 0 28.8 11.2 56 32 76.8l1.6 1.6-14.4 40h-1.6c-64 14.4-107.2 70.4-107.2 136 0 32 25.6 57.6 57.6 57.6h276.8c32 0 57.6-25.6 57.6-57.6 0-65.6-43.2-121.6-107.2-136h-1.6l-16-41.6 1.6-1.6c20.8-19.2 32-46.4 32-75.2 0-57.6-48-105.6-105.6-105.6z m137.6 364.8H550.4c-1.6 0-4.8-1.6-4.8-4.8 0-44.8 33.6-81.6 78.4-86.4 9.6-1.6 19.2-8 22.4-17.6l27.2-72c4.8-11.2 0-25.6-11.2-32-16-9.6-25.6-27.2-25.6-44.8 0-28.8 24-52.8 52.8-52.8 14.4 0 27.2 4.8 36.8 16 9.6 9.6 16 22.4 16 36.8 0 19.2-9.6 35.2-25.6 44.8-11.2 6.4-16 19.2-11.2 32l27.2 73.6c3.2 9.6 11.2 16 22.4 17.6 44.8 4.8 76.8 41.6 76.8 86.4 0 0-1.6 3.2-4.8 3.2z m-137.6-307.2c-27.2 0-48 22.4-48 48 0 17.6 9.6 33.6 24 41.6 12.8 8 17.6 22.4 12.8 36.8l-27.2 72c-3.2 11.2-14.4 19.2-25.6 19.2-43.2 4.8-75.2 40-75.2 83.2h276.8c0-43.2-32-78.4-73.6-83.2-11.2-1.6-20.8-8-25.6-19.2L700.8 672c-4.8-14.4 0-28.8 12.8-36.8 14.4-9.6 24-24 24-41.6 0-12.8-4.8-25.6-14.4-33.6-8-8-20.8-12.8-33.6-12.8z" fill="#67C23A" /></svg>