<svg xmlns="http://www.w3.org/2000/svg" width="24" height="30" viewBox="0 0 24 30">
  <g id="组_12884" data-name="组 12884" transform="translate(21462 4898.5)">
    <path id="路径_19508" data-name="路径 19508" d="M102.4,0h24V30l-12-8-12,8Z" transform="translate(-21564.4 -4898.5)" fill="#cad9f8"/>
    <path id="路径_19509" data-name="路径 19509" d="M79.055,101.284a1.81,1.81,0,0,1-.9-.172l-4.375-1.995-4.308,1.995a1.631,1.631,0,0,1-.723.17,1.819,1.819,0,0,1-1.591-1,1.677,1.677,0,0,1-.185-.93v-.025l.582-4.788L64.262,91l0,0a1.738,1.738,0,0,1,.1-2.423l.02-.018.022-.013a2.44,2.44,0,0,1,.79-.388l.009,0,4.712-.968L72.294,83a1.732,1.732,0,0,1,2.341-.692l.013.007.013.009a1.749,1.749,0,0,1,.663.676L77.7,87.18l4.7.966a1.691,1.691,0,0,1,1.113.745,1.8,1.8,0,0,1,.268,1.312l0,.013,0,.013a1.659,1.659,0,0,1-.431.846l-3.28,3.536.58,4.77v.007a1.747,1.747,0,0,1-.386,1.267,1.724,1.724,0,0,1-1.176.627l-.018,0h-.018Zm-5.2-4.291a2.244,2.244,0,0,1,.716.12l.02.007,3.927,1.792L78,94.668a1.62,1.62,0,0,1,.44-1.4l2.932-3.162-4.19-.861a1.521,1.521,0,0,1-1.149-.881l-2.12-3.724-2.135,3.751,0,0a1.806,1.806,0,0,1-1.127.85l-4.195.861,2.932,3.162a1.616,1.616,0,0,1,.44,1.4l-.515,4.239,3.849-1.781.009,0A1.775,1.775,0,0,1,73.851,96.993Z" transform="translate(-21523.816 -4978.6)" fill="#5f6f8f"/>
  </g>
</svg>
