<svg xmlns="http://www.w3.org/2000/svg" width="60" height="60" viewBox="0 0 60 60">
  <g id="组_6609" data-name="组 6609" transform="translate(-556 -259)">
    <rect id="矩形_6770" data-name="矩形 6770" width="60" height="60" rx="5" transform="translate(556 259)" fill="#eff4fa"/>
    <g id="组_6633" data-name="组 6633" transform="translate(510.287 214.997)">
      <path id="路径_14256" data-name="路径 14256" d="M85.167,82.317A14.021,14.021,0,1,0,74.673,86.97,13.7,13.7,0,0,0,83.9,83.492l1.265-1.175ZM74.72,84.385A11.422,11.422,0,1,1,86.1,72.963,11.422,11.422,0,0,1,74.72,84.385Z" fill="#1660f1"/>
      <path id="路径_14257" data-name="路径 14257" d="M310.633,260.672a1.141,1.141,0,1,0,0-2.282h-4.517l4.9-4.9a1.143,1.143,0,0,0-1.616-1.616l-4.469,4.469-4.326-4.326c-.047-.048-.047-.143-.143-.143a1.143,1.143,0,1,0-1.616,1.616l4.9,4.9H299.42a1.141,1.141,0,1,0,0,2.282h4.469v2.282H299.42a1.141,1.141,0,1,0,0,2.282h4.469v3.376a1.141,1.141,0,1,0,2.282,0v-3.376h4.469a1.141,1.141,0,0,0,0-2.282h-4.469v-2.282Zm3.375,7.94a1.522,1.522,0,0,0,0,2.187l4.564,4.564a1.546,1.546,0,0,0,2.187-2.187l-4.564-4.564a1.521,1.521,0,0,0-2.186,0Z" transform="translate(-230.51 -186.823)" fill="#1660f1"/>
    </g>
  </g>
</svg>
