<svg xmlns="http://www.w3.org/2000/svg" width="60" height="60" viewBox="0 0 60 60">
  <g id="组_6609" data-name="组 6609" transform="translate(-556 -259)">
    <rect id="矩形_6770" data-name="矩形 6770" width="60" height="60" rx="5" transform="translate(556 259)" fill="#eff4fa"/>
    <g id="组_6656" data-name="组 6656" transform="translate(568.496 210)">
      <path id="路径_14266" data-name="路径 14266" d="M12.639,83.5a10.42,10.42,0,0,1-.868-4.5A12.98,12.98,0,0,1,24.8,66.143a13.876,13.876,0,0,1,9.118,3.643l1.52-1.5A15.8,15.8,0,0,0,24.8,64,15.006,15.006,0,0,0,9.6,79a12.012,12.012,0,0,0,1.52,6.214Zm24.748-7.929A16.45,16.45,0,0,1,37.822,79,12.98,12.98,0,0,1,24.8,91.857a12.571,12.571,0,0,1-8.249-3l-1.52,1.5A14.485,14.485,0,0,0,24.8,94,15.006,15.006,0,0,0,40,79a19.63,19.63,0,0,0-.868-5.143Z" transform="translate(-9.279)" fill="#67C23A"/>
      <path id="路径_14267" data-name="路径 14267" d="M204.171,262.643a6.234,6.234,0,0,1,6-4.5,6.167,6.167,0,0,1,4.5,1.929l1.5-1.5a7.781,7.781,0,0,0-6-2.571,8.6,8.6,0,0,0-8.571,8.571v.643Zm10.929,6A6.407,6.407,0,0,1,210.171,271a5.983,5.983,0,0,1-3.857-1.286l-1.5,1.5a8.23,8.23,0,0,0,5.357,1.929A8.663,8.663,0,0,0,218.743,265Z" transform="translate(-194.698 -185.571)" fill="#67C23A"/>
      <path id="路径_14268" data-name="路径 14268" d="M33.916,64h-6.5a1.072,1.072,0,0,0,0,2.143h3.9L18.1,79.429l-3.034-3.643c-.217-.214-.433-.214-.867-.214a1.314,1.314,0,0,0-.867.214l-13,14.357a1.028,1.028,0,0,0,0,1.5c.217.214.433.214.867.214a1.65,1.65,0,0,0,.867-.429L14.412,78.143l3.034,3.429c0,.214.217.429.65.429a1.314,1.314,0,0,0,.867-.214l13.87-14.143V71.5A1.084,1.084,0,0,0,35,71.5V65.071A1.018,1.018,0,0,0,33.916,64Z" fill="#67C23A"/>
    </g>
  </g>
</svg>
