<svg id="组_6609" data-name="组 6609" xmlns="http://www.w3.org/2000/svg" width="60" height="60" viewBox="0 0 60 60">
  <rect id="矩形_6770" data-name="矩形 6770" width="60" height="60" rx="5" fill="#eff4fa"/>
  <g id="组_6631" data-name="组 6631" transform="translate(15 15)">
    <path id="路径_14251" data-name="路径 14251" d="M187.931,211.514H175.575a1.03,1.03,0,1,1,0-2.059h12.356a1.03,1.03,0,1,1,0,2.059Zm-5.148,4.8h-6.865a1.03,1.03,0,1,1,0-2.059h6.865a1.03,1.03,0,0,1,0,2.059Zm-4.119,4.8h-2.746a1.03,1.03,0,0,1,0-2.059h2.746a1.03,1.03,0,0,1,0,2.059Zm12.013-3.432a6.865,6.865,0,1,1-6.865,6.865,6.865,6.865,0,0,1,6.865-6.865m0-2.059a8.906,8.906,0,1,0,6.315,2.608,8.924,8.924,0,0,0-6.315-2.608Z" transform="translate(-169.601 -203.48)" fill="#1660f1"/>
    <path id="路径_14252" data-name="路径 14252" d="M21.692,17.17l.892,1.84a.684.684,0,0,0,.343.273l1.991.273a.448.448,0,0,1,.275.749l-1.442,1.431a.5.5,0,0,0-.137.409l.343,1.976a.456.456,0,0,1-.618.477l-1.785-.954a.441.441,0,0,0-.412,0l-1.853.886a.425.425,0,0,1-.618-.477l.343-1.976a.5.5,0,0,0-.137-.409l-1.442-1.431a.431.431,0,0,1,.275-.749l1.991-.273a.456.456,0,0,0,.343-.273l.892-1.84a.428.428,0,0,1,.755.068ZM9.61,25.21H2.883a.883.883,0,0,1-.824-.818V2.862a.883.883,0,0,1,.824-.818H21.761a.9.9,0,0,1,.892.818V9.539h2.059V2.862A2.89,2.89,0,0,0,21.829,0H2.883A2.89,2.89,0,0,0,0,2.862V24.324a2.9,2.9,0,0,0,2.883,2.93H9.61Z" transform="translate(0)" fill="#1660f1"/>
  </g>
</svg>
