<?xml version="1.0" standalone="no"?><!DOCTYPE svg PUBLIC "-//W3C//DTD SVG 1.1//EN" "http://www.w3.org/Graphics/SVG/1.1/DTD/svg11.dtd"><svg t="1628845909847" class="icon" viewBox="0 0 1024 1024" version="1.1" xmlns="http://www.w3.org/2000/svg" p-id="8394" xmlns:xlink="http://www.w3.org/1999/xlink" width="200" height="200"><defs><style type="text/css"></style></defs><path d="M678.848 515.392H535.808V276.992a46.528 46.528 0 0 0-47.68-47.68 45.568 45.568 0 0 0-40.896 47.68v286.144a46.528 46.528 0 0 0 47.68 47.68h183.872a46.528 46.528 0 0 0 47.68-47.68 57.6 57.6 0 0 0-47.616-47.744zM644.8 18.176a511.36 511.36 0 1 0 360.96 626.624 505.088 505.088 0 0 0-360.96-626.624z m289.92 609.344c-79.36 204.8-267.648 355.584-527.808 301.952A432.192 432.192 0 1 1 613.824 90.176c214.336 28.48 389.44 305.344 320.96 537.344z" fill="#5F6F8F" p-id="8395"></path></svg>