<?xml version="1.0" encoding="UTF-8"?>
<svg width="80px" height="68px" viewBox="0 0 80 68" version="1.1" xmlns="http://www.w3.org/2000/svg" xmlns:xlink="http://www.w3.org/1999/xlink">
    <title>上传议程</title>
    <g id="Epic02-13上传Agenda" stroke="none" stroke-width="1" fill="none" fill-rule="evenodd" opacity="0.5">
        <g id="大众会议系统" transform="translate(-688.000000, -502.000000)" fill="#BBBBBB" fill-rule="nonzero">
            <g id="编组" transform="translate(648.000000, 390.000000)">
                <g id="上传议程" transform="translate(40.000000, 112.000000)">
                    <path d="M60.0425857,24.779367 C60.0425857,13.8180002 51.0860587,4.93205663 40.0376227,4.93205663 C28.9891868,4.93205663 20.0326598,13.8180002 20.0326598,24.779367 C11.7463328,24.779367 5.02893754,31.4438247 5.02893754,39.6648498 C5.02893754,47.885875 11.7463328,54.5503326 20.0326598,54.5503326 L20.0326598,59.5121777 C9.87007079,59.5254356 1.31227689,51.9771318 0.13584746,41.9624055 C-1.04058197,31.9476793 5.53822054,22.649195 15.4315183,20.3434931 C17.6091855,8.55891655 27.9614683,0 40.0376227,0 C52.1137772,0 62.46606,8.55891655 64.6437272,20.3434931 C74.5003464,22.6846381 81.0373546,31.9660188 79.8641022,41.9536994 C78.6908498,51.94138 70.1776945,59.4825741 60.0425857,59.5121777 L60.0425857,54.5503326 C68.3289126,54.5503324 75.0463076,47.8858748 75.0463076,39.6648498 C75.0463076,31.4438248 68.3289126,24.7793672 60.0425857,24.779367 Z M20.0326598,54.5503326 L30.0351412,54.5503326 L30.0351412,59.5121602 L20.0326598,59.5121602 L20.0326598,54.5503326 Z M50.0401042,54.5503326 L60.0425857,54.5503326 L60.0425857,59.5121602 L50.0401042,59.5121602 L50.0401042,54.5503326 Z" id="Shape"></path>
                    <path d="M43.5322802,38.7764971 L43.5322802,64.8015817 C43.5213305,66.1805431 42.3897035,67.2980756 40.985063,67.3170732 C39.5804224,67.2980756 38.4487954,66.1805431 38.4378457,64.8015817 L38.4378457,38.7764971 L35.5645847,41.5970482 C34.5641433,42.551001 32.9702258,42.5443333 31.9781029,41.5820453 C31.4956799,41.1197031 31.2224081,40.4866761 31.2195122,39.8248426 C31.2166621,39.1630091 31.4844281,38.5277188 31.9628195,38.0613574 L39.1969165,30.95997 C39.6723604,30.4945428 40.3187604,30.2367602 40.9901574,30.2448303 C41.6595159,30.2263756 42.3061624,30.4839165 42.7732094,30.954969 L50.0073064,38.0613574 C50.9790864,39.0434457 50.9722942,40.6081228 49.9920231,41.5820453 C49.5210408,42.0556182 48.8761839,42.3238768 48.2019821,42.3266971 C47.5277803,42.3295174 46.8806179,42.0666636 46.4055412,41.5970482 L43.5322802,38.7764971 L43.5322802,38.7764971 Z" id="Path"></path>
                </g>
            </g>
        </g>
    </g>
</svg>