<?xml version="1.0" encoding="utf-8"?>
<svg width="24px" height="20px" viewBox="0 0 24 20" version="1.1" xmlns:xlink="http://www.w3.org/1999/xlink" xmlns="http://www.w3.org/2000/svg">
  <defs>
    <filter id="filter_1">
      <feColorMatrix in="SourceGraphic" type="matrix" values="0 0 0 0 1 0 0 0 0 1 0 0 0 0 1 0 0 0 1 0" />
    </filter>
  </defs>
  <g id="上传议程" filter="url(#filter_1)">
    <path d="M17.8973 7.36663C17.8973 4.10794 15.2276 1.46625 11.9343 1.46625C8.64101 1.46625 5.97127 4.10794 5.97127 7.36663C3.50131 7.36663 1.49901 9.3479 1.49901 11.7919C1.49901 14.2359 3.50131 16.2172 5.97127 16.2172L5.97127 17.6923C2.94204 17.6962 0.391159 15.4522 0.040493 12.475C-0.310173 9.49769 1.65082 6.73335 4.59978 6.04789C5.24889 2.54447 8.33467 -3.27537e-16 11.9343 0C15.5339 3.27537e-16 18.6197 2.54447 19.2688 6.04789C22.2068 6.74389 24.1554 9.50314 23.8056 12.4724C23.4559 15.4416 20.9184 17.6835 17.8973 17.6923L17.8973 16.2172C20.3673 16.2172 22.3696 14.2359 22.3696 11.7919C22.3696 9.3479 20.3673 7.36663 17.8973 7.36663ZM5.97127 16.2172L8.95278 16.2172L8.95278 17.6923L5.97127 17.6923L5.97127 16.2172ZM14.9158 16.2172L17.8973 16.2172L17.8973 17.6923L14.9158 17.6923L14.9158 16.2172Z" id="Shape" fill="#1660F1" stroke="none" />
    <path d="M3.64055 2.53171L3.64055 10.2536C3.63732 10.6628 3.30273 10.9944 2.88741 11C2.4721 10.9944 2.1375 10.6628 2.13427 10.2536L2.13427 2.53171L1.28472 3.3686C0.988917 3.65165 0.517639 3.64967 0.224295 3.36415C0.0816553 3.22696 0.00085624 3.03914 6.76597e-06 2.84277C-0.000842708 2.64639 0.0783285 2.4579 0.219776 2.31952L2.3587 0.212465C2.49928 0.0743676 2.6904 -0.00211916 2.88892 0.000275299C3.08683 -0.00520039 3.27802 0.0712147 3.41612 0.210981L5.55505 2.31952C5.84237 2.61092 5.84037 3.07517 5.55053 3.36415C5.41127 3.50466 5.2206 3.58426 5.02126 3.58509C4.82192 3.58593 4.63057 3.50794 4.4901 3.3686L3.64055 2.53171L3.64055 2.53171Z" transform="translate(9.230774 9)" id="Path" fill="#1660F1" stroke="none" />
  </g>
</svg>