<?xml version="1.0" standalone="no"?><!DOCTYPE svg PUBLIC "-//W3C//DTD SVG 1.1//EN" "http://www.w3.org/Graphics/SVG/1.1/DTD/svg11.dtd"><svg class="icon" width="200px" height="200.00px" viewBox="0 0 1024 1024" version="1.1" xmlns="http://www.w3.org/2000/svg"><path d="M791.405714 1024H232.725943A233.3696 233.3696 0 0 1 0 791.303314V232.799086A233.398857 233.398857 0 0 1 232.725943 0h558.548114A233.3696 233.3696 0 0 1 1024 232.696686v558.504228A233.252571 233.252571 0 0 1 791.405714 1024z" fill="#1763F7" /><path d="M552.5504 693.847771h-13.911771A570.514286 570.514286 0 0 1 326.217143 652.668343c-60.298971-26.463086-93.066971-62.449371-92.16-100.937143 0.643657-37.551543 33.060571-71.387429 91.2384-95.378286a547.869257 547.869257 0 0 1 204.682971-35.108571h13.911772a564.4288 564.4288 0 0 1 212.406857 41.252571c60.298971 26.463086 93.066971 62.449371 92.16 100.937143-0.585143 37.507657-33.104457 71.343543-91.282286 95.349029a547.854629 547.854629 0 0 1-204.682971 35.108571zM530.285714 446.815086a522.24 522.24 0 0 0-194.794057 33.236114c-47.3088 19.675429-74.825143 45.831314-75.439543 71.972571-0.6144 27.077486 27.516343 55.061943 76.682972 76.917029a543.626971 543.626971 0 0 0 202.474057 39.072914h13.297371a520.572343 520.572343 0 0 0 194.486857-33.221485c47.3088-19.690057 74.825143-45.845943 75.439543-71.9872 0.6144-27.077486-27.516343-55.061943-76.682971-76.917029a543.202743 543.202743 0 0 0-202.152229-39.072914c-4.388571 0.3072-8.967314 0-13.297371 0z m139.761372 377.168457c-34.011429 0-75.439543-18.461257-119.661715-53.525943a601.073371 601.073371 0 0 1-123.055542-137.8304 564.399543 564.399543 0 0 1-86.308572-197.485714c-12.053943-64.365714-0.9216-111.674514 31.232-132.900572a72.718629 72.718629 0 0 1 40.813714-11.381028c34.011429 0 75.439543 18.461257 119.661715 53.525943a601.073371 601.073371 0 0 1 123.055543 137.8304 564.399543 564.399543 0 0 1 86.308571 197.485714c12.053943 64.365714 0.9216 111.674514-31.232 132.900571a72.733257 72.733257 0 0 1-40.813714 11.381029zM412.789029 316.679314a48.903314 48.903314 0 0 0-26.594743 7.080229c-22.571886 14.760229-29.988571 53.833143-20.099657 106.452114a539.574857 539.574857 0 0 0 82.549028 187.977143 577.418971 577.418971 0 0 0 117.803886 131.978971c38.955886 30.72 75.746743 47.996343 103.584914 47.996343a49.737143 49.737143 0 0 0 26.594743-7.080228c22.571886-14.760229 29.988571-53.833143 20.099657-106.452115a539.574857 539.574857 0 0 0-82.549028-187.977142 577.418971 577.418971 0 0 0-117.803886-131.978972c-38.955886-30.72-75.746743-47.996343-103.584914-47.996343zM427.637029 833.828571a70.773029 70.773029 0 0 1-34.318629-8.309028c-34.011429-18.461257-48.859429-64.599771-42.057143-129.828572a557.582629 557.582629 0 0 1 70.217143-203.658971c42.422857-76.302629 96.782629-141.2096 149.035886-178.132114a12.887771 12.887771 0 0 1 17.934628 3.072 12.756114 12.756114 0 0 1-3.086628 17.846857c-49.473829 34.450286-101.098057 96.299886-141.297372 169.515886a537.029486 537.029486 0 0 0-67.101257 194.121142c-5.558857 53.525943 4.944457 91.677257 28.759772 104.594286s61.834971 1.2288 104.199314-31.992686a537.9072 537.9072 0 0 0 128.936228-159.978057c40.506514-73.216 65.243429-149.518629 68.022858-209.5104a13.0048 13.0048 0 0 1 25.965714 1.2288c-3.086629 63.985371-29.066971 144.2816-71.416686 220.584229a565.3504 565.3504 0 0 1-135.431314 167.979886C490.0864 819.434057 456.382171 833.828571 427.637029 833.828571z m183.661714-520.543085A65.082514 65.082514 0 1 0 676.234971 248.685714a64.760686 64.760686 0 0 0-64.936228 64.599772z" fill="#E0EAFF" /><path d="M508.664686 635.333486h-13.911772A570.514286 570.514286 0 0 1 282.331429 594.154057c-60.298971-26.463086-93.066971-62.449371-92.16-100.937143 0.643657-37.551543 33.060571-71.387429 91.2384-95.378285a547.869257 547.869257 0 0 1 204.682971-35.108572h13.911771a564.4288 564.4288 0 0 1 212.406858 41.252572c60.298971 26.463086 93.066971 62.449371 92.16 100.937142-0.585143 37.507657-33.104457 71.343543-91.282286 95.349029a547.854629 547.854629 0 0 1-204.682972 35.108571zM486.4 388.3008a522.24 522.24 0 0 0-194.794057 33.236114c-47.3088 19.675429-74.825143 45.831314-75.439543 71.972572-0.6144 27.077486 27.516343 55.061943 76.682971 76.917028a543.626971 543.626971 0 0 0 202.474058 39.072915h13.297371a520.572343 520.572343 0 0 0 194.486857-33.221486c47.3088-19.690057 74.825143-45.845943 75.439543-71.9872 0.6144-27.077486-27.516343-55.061943-76.682971-76.917029a543.202743 543.202743 0 0 0-202.152229-39.072914c-4.388571 0.3072-8.967314 0-13.297371 0z m139.761371 377.168457c-34.011429 0-75.439543-18.461257-119.661714-53.525943a601.073371 601.073371 0 0 1-123.055543-137.8304 564.399543 564.399543 0 0 1-86.308571-197.485714c-12.053943-64.365714-0.9216-111.674514 31.232-132.900571a72.718629 72.718629 0 0 1 40.813714-11.381029c34.011429 0 75.439543 18.461257 119.661714 53.525943a601.073371 601.073371 0 0 1 123.055543 137.8304 564.399543 564.399543 0 0 1 86.308572 197.485714c12.053943 64.365714 0.9216 111.674514-31.232 132.900572a72.733257 72.733257 0 0 1-40.813715 11.381028zM368.903314 258.165029a48.903314 48.903314 0 0 0-26.594743 7.080228c-22.571886 14.760229-29.988571 53.833143-20.099657 106.452114a539.574857 539.574857 0 0 0 82.549029 187.977143 577.418971 577.418971 0 0 0 117.803886 131.978972c38.955886 30.72 75.746743 47.996343 103.584914 47.996343a49.737143 49.737143 0 0 0 26.594743-7.080229c22.571886-14.760229 29.988571-53.833143 20.099657-106.452114a539.574857 539.574857 0 0 0-82.549029-187.977143 577.418971 577.418971 0 0 0-117.803885-131.978972c-38.955886-30.72-75.746743-47.996343-103.584915-47.996342zM383.751314 775.314286a70.773029 70.773029 0 0 1-34.318628-8.309029c-34.011429-18.461257-48.859429-64.599771-42.057143-129.828571a557.582629 557.582629 0 0 1 70.217143-203.658972c42.422857-76.302629 96.782629-141.2096 149.035885-178.132114a12.887771 12.887771 0 0 1 17.934629 3.072 12.756114 12.756114 0 0 1-3.086629 17.846857c-49.473829 34.450286-101.098057 96.299886-141.297371 169.515886a537.029486 537.029486 0 0 0-67.101257 194.121143c-5.558857 53.525943 4.944457 91.677257 28.759771 104.594285s61.834971 1.2288 104.199315-31.992685a537.9072 537.9072 0 0 0 128.936228-159.978057c40.506514-73.216 65.243429-149.518629 68.022857-209.5104a13.0048 13.0048 0 0 1 25.965715 1.2288c-3.086629 63.985371-29.066971 144.2816-71.416686 220.584228a565.3504 565.3504 0 0 1-135.431314 167.979886C446.200686 760.919771 412.496457 775.314286 383.751314 775.314286z m183.661715-520.543086A65.082514 65.082514 0 1 0 632.349257 190.171429a64.760686 64.760686 0 0 0-64.936228 64.599771z" fill="#FFFFFF" /></svg>