<?xml version="1.0" encoding="UTF-8"?>
<svg width="200px" height="200px" viewBox="0 0 200 200" version="1.1" xmlns="http://www.w3.org/2000/svg" xmlns:xlink="http://www.w3.org/1999/xlink">
    <!-- Generator: Sketch 60.1 (88133) - https://sketch.com -->
    <title>未命名 4</title>
    <desc>Created with Sketch.</desc>
    <g id="页面-1" stroke="none" stroke-width="1" fill="none" fill-rule="evenodd">
        <g id="zhinengzhushouxuanzhong" fill-rule="nonzero">
            <path d="M154.571429,200 L45.4542857,200 C20.3814629,199.93095 0.0722019009,179.624243 0,154.551429 L0,45.4685715 C0.0643431999,20.3892455 20.3749812,0.0722240924 45.4542857,0 L154.545714,0 C179.618537,0.0690496887 199.927798,20.3757575 200,45.4485715 L200,154.531429 C199.951348,179.607243 179.64719,199.929278 154.571429,200 Z" id="路径" fill="#1763F7"></path>
            <path d="M107.92,135.517143 L105.202857,135.517143 C90.9868992,135.507274 76.904143,132.777231 63.7142857,127.474286 C51.937143,122.305714 45.537143,115.277143 45.7142857,107.76 C45.84,100.425714 52.1714285,93.8171428 63.5342857,89.1314285 C76.300968,84.3179363 89.8704131,81.9904157 103.511429,82.2742857 L106.228571,82.2742857 C120.447345,82.2594492 134.534724,84.9954277 147.714286,90.3314285 C159.491429,95.5 165.891429,102.528571 165.714286,110.045714 C165.6,117.371429 159.248571,123.98 147.885714,128.668571 C135.119051,133.482132 121.549592,135.809655 107.908571,135.525714 L107.92,135.517143 Z M103.571429,87.2685715 C90.5919766,86.9914623 77.6789467,89.1947068 65.5257143,93.76 C56.2857143,97.6028572 50.9114285,102.711429 50.7914285,107.817143 C50.6714285,113.105714 56.1657143,118.571429 65.7685715,122.84 C78.3428724,127.883503 91.7662248,130.473906 105.314286,130.471429 L107.911429,130.471429 C120.871187,130.749801 133.764631,128.547393 145.897143,123.982857 C155.137143,120.137143 160.511429,115.028571 160.631429,109.922857 C160.751429,104.634286 155.257143,99.1685715 145.654286,94.9 C133.100187,89.8624027 119.698541,87.2720706 106.171429,87.2685715 C105.314286,87.3285715 104.42,87.2685715 103.574286,87.2685715 L103.571429,87.2685715 Z M130.868571,160.934286 C124.225714,160.934286 116.134286,157.328571 107.497143,150.48 C98.1461529,142.799013 90.0389603,133.718417 83.4628572,123.56 C75.4183651,111.905025 69.6949874,98.8091608 66.6057143,84.9885715 C64.2514285,72.417143 66.4257143,63.177143 72.7057143,59.0314285 C75.0832974,57.5156247 77.8582588,56.7418183 80.6771428,56.8085715 C87.32,56.8085715 95.4114285,60.4142857 104.048571,67.2628572 C113.399561,74.9438443 121.506754,84.0244399 128.082857,94.1828572 C136.127349,105.837832 141.850727,118.933696 144.94,132.754286 C147.294286,145.325714 145.12,154.565714 138.84,158.711429 C136.462346,160.227073 133.687434,161.000866 130.868571,160.934286 L130.868571,160.934286 Z M80.6228572,61.8514285 C78.7947502,61.8056375 76.9919219,62.2855984 75.4285715,63.2342857 C71.02,66.117143 69.5714287,73.7485715 71.5028572,84.0257143 C74.4779067,97.1828836 79.9512506,109.64655 87.6257143,120.74 C93.9256442,130.463226 101.686228,139.157624 110.634286,146.517143 C118.242857,152.517143 125.428571,155.891429 130.865714,155.891429 C132.692746,155.928213 134.493104,155.44891 136.06,154.508571 C140.468571,151.625714 141.917143,143.994286 139.985714,133.717143 C137.010665,120.559974 131.537321,108.096307 123.862857,97.0028572 C117.562927,87.2796311 109.802343,78.5852327 100.854286,71.2257143 C93.2457143,65.2257143 86.06,61.8514285 80.6228572,61.8514285 L80.6228572,61.8514285 Z M83.5228572,162.857143 C81.1873435,162.891197 78.8812862,162.332868 76.82,161.234286 C70.1771428,157.628571 67.2771428,148.617143 68.6057143,135.877143 C70.5479902,121.852667 75.2063448,108.341498 82.32,96.1 C90.6057143,81.1971428 101.222857,68.52 111.428571,61.3085715 C112.562094,60.5093969 114.128501,60.7777048 114.931429,61.9085715 C115.316355,62.4498824 115.469194,63.1224888 115.355998,63.7769905 C115.242801,64.4314922 114.872941,65.0136974 114.328571,65.3942857 C104.665714,72.1228572 94.5828572,84.2028572 86.7314285,98.5028572 C79.9642631,110.180073 75.5143208,123.053571 73.6257143,136.417143 C72.54,146.871429 74.5914285,154.322857 79.2428572,156.845714 C83.8942859,159.368571 91.32,157.085714 99.5942857,150.597143 C109.918271,141.896768 118.468513,131.288027 124.777143,119.351429 C132.688571,105.051429 137.52,90.1485713 138.062857,78.4314285 C138.173735,77.0664995 139.346692,76.0351888 140.714586,76.0999229 C142.082481,76.1646571 143.152803,77.3021287 143.134522,78.6714285 C142.531429,91.1685713 137.457143,106.851429 129.185714,121.754286 C122.556682,134.287261 113.576,145.426295 102.734286,154.562857 C95.72,160.045714 89.1371428,162.857143 83.5228572,162.857143 Z M119.394286,61.1885715 C119.356081,66.3408704 122.431877,71.0065955 127.182181,73.0021549 C131.932485,74.9977144 137.417549,73.9283291 141.070326,70.2944789 C144.723102,66.6606286 145.820966,61.1811936 143.850111,56.4205874 C141.879255,51.6599813 137.229571,48.559989 132.077143,48.5713819 C128.722036,48.5623237 125.50077,49.8866045 123.122189,52.2528622 C120.743607,54.6191199 119.40261,57.8334622 119.394286,61.1885715 L119.394286,61.1885715 Z" id="形状" fill="#3A79F5"></path>
            <path d="M99.3485715,124.088571 L96.6314285,124.088571 C82.4154705,124.078703 68.3327144,121.348659 55.1428572,116.045714 C43.3657145,110.877143 36.9657145,103.848571 37.1428572,96.3314285 C37.2685715,88.9971428 43.6,82.3885713 54.9628572,77.7028572 C67.7295395,72.8893649 81.2989846,70.5618443 94.94,70.8457143 L97.6571428,70.8457143 C111.875917,70.8308778 125.963295,73.5668563 139.142857,78.9028572 C150.92,84.0714287 157.32,91.1 157.142857,98.6171428 C157.028571,105.942857 150.677143,112.551429 139.314286,117.24 C126.547622,122.05356 112.978163,124.381083 99.3371428,124.097143 L99.3485715,124.088571 Z M95,75.84 C82.0205481,75.5628908 69.1075182,77.7661353 56.9542857,82.3314285 C47.7142857,86.1742857 42.34,91.282857 42.22,96.3885715 C42.1,101.677143 47.5942857,107.142857 57.1971428,111.411429 C69.7714437,116.454931 83.1947962,119.045335 96.7428572,119.042857 L99.34,119.042857 C112.299759,119.321229 125.193202,117.118822 137.325714,112.554286 C146.565714,108.708571 151.94,103.6 152.06,98.4942857 C152.18,93.2057143 146.685714,87.74 137.082857,83.4714285 C124.528759,78.4338312 111.127112,75.8434991 97.6,75.84 C96.7428572,75.9 95.8485715,75.84 95.0028572,75.84 L95,75.84 Z M122.297143,149.505714 C115.654286,149.505714 107.562857,145.9 98.9257143,139.051429 C89.5747243,131.370441 81.4675316,122.289846 74.8914285,112.131429 C66.8469365,100.476453 61.1235588,87.3805893 58.0342857,73.56 C55.68,60.9885715 57.8542857,51.7485715 64.1342857,47.6028572 C66.5118688,46.0870533 69.2868303,45.3132469 72.1057143,45.38 C78.7485715,45.38 86.84,48.9857143 95.4771428,55.8342857 C104.828133,63.5152728 112.935325,72.5958684 119.511429,82.7542857 C127.555921,94.4092608 133.279298,107.505125 136.368571,121.325714 C138.722857,133.897143 136.548571,143.137143 130.268571,147.282857 C127.890917,148.798502 125.116005,149.572294 122.297143,149.505714 L122.297143,149.505714 Z M72.0514285,50.4228572 C70.2233215,50.3770662 68.4204932,50.857027 66.8571428,51.8057143 C62.4485713,54.6885715 61,62.32 62.9314285,72.5971428 C65.9064781,85.7543121 71.379822,98.2179786 79.0542857,109.311429 C85.3542157,119.034655 93.1147998,127.729053 102.062857,135.088571 C109.671429,141.088571 116.857143,144.462857 122.294286,144.462857 C124.121318,144.499642 125.921676,144.020338 127.488571,143.08 C131.897143,140.197143 133.345714,132.565714 131.414286,122.288571 C128.439236,109.131402 122.965892,96.6677357 115.291429,85.5742857 C108.991499,75.8510597 101.230915,67.1566613 92.2828572,59.7971428 C84.6742857,53.7971428 77.4885715,50.422857 72.0514285,50.4228572 L72.0514285,50.4228572 Z M74.9514285,151.428571 C72.6159149,151.462626 70.3098576,150.904297 68.2485715,149.805714 C61.6057143,146.2 58.7057143,137.188571 60.0342857,124.448571 C61.9765616,110.424096 66.6349163,96.9129262 73.7485715,84.6714285 C82.0342857,69.7685713 92.6514287,57.0914285 102.857143,49.88 C103.990665,49.0808253 105.557072,49.3491332 106.36,50.48 C106.744926,51.0213109 106.897766,51.6939174 106.784569,52.3484191 C106.671373,53.0029207 106.301513,53.5851259 105.757143,53.9657143 C96.0942855,60.6942857 86.0114285,72.7742857 78.16,87.0742857 C71.3928346,98.7515014 66.9428922,111.624999 65.0542857,124.988571 C63.9685715,135.442857 66.02,142.894286 70.6714285,145.417143 C75.322857,147.94 82.7485713,145.657143 91.0228572,139.168571 C101.346842,130.468197 109.897084,119.859455 116.205714,107.922857 C124.117143,93.6228572 128.948571,78.72 129.491429,67.0028572 C129.602305,65.637927 130.775263,64.6066146 132.143158,64.6713488 C133.511053,64.736083 134.581376,65.8735563 134.563094,67.2428572 C133.96,79.74 128.885714,95.4228572 120.614286,110.325714 C113.985254,122.85869 105.004571,133.997724 94.1628572,143.134286 C87.1485715,148.617143 80.5657143,151.428571 74.9514285,151.428571 Z M110.822857,49.76 C110.784652,54.9122989 113.860449,59.578024 118.610752,61.5735836 C123.361056,63.5691431 128.84612,62.4997579 132.498897,58.8659076 C136.151674,55.2320574 137.249538,49.7526224 135.278682,44.9920162 C133.307826,40.23141 128.658142,37.1314177 123.505714,37.1428106 C120.150607,37.1337524 116.929342,38.4580332 114.55076,40.8242908 C112.172178,43.1905485 110.831182,46.4048908 110.822857,49.76 L110.822857,49.76 Z" id="形状" fill="#FFFFFF"></path>
        </g>
    </g>
</svg>
