<?xml version="1.0" encoding="UTF-8"?>
<svg width="174px" height="174px" viewBox="0 0 174 174" version="1.1" xmlns="http://www.w3.org/2000/svg" xmlns:xlink="http://www.w3.org/1999/xlink">
    <!-- Generator: Sketch 60.1 (88133) - https://sketch.com -->
    <title>未命名 6</title>
    <desc>Created with Sketch.</desc>
    <g id="页面-1" stroke="none" stroke-width="1" fill="none" fill-rule="evenodd">
        <g id="huiyi-shouye" transform="translate(0.316602, 0.806950)" fill="#1763F7">
            <circle id="椭圆形" opacity="0.2" cx="86.6833977" cy="86.1930502" r="86"></circle>
            <path d="M86.3502438,16.1943117 C48.0775795,16.6544516 17.3796836,47.9728333 17.6856653,86.2480588 C17.9916471,124.523284 49.1863214,155.346854 87.4614301,155.194312 C125.736539,155.040633 156.683398,123.968479 156.683398,85.6920303 C156.451031,47.0789648 124.962276,15.9648129 86.3502438,16.1943117 Z M46.954965,117.193103 C46.6163057,117.208244 46.2867092,117.080549 46.0454894,116.840745 C45.8042697,116.600941 45.6732685,116.270743 45.6840099,115.929609 L45.6840099,113.821992 C45.6840099,110.445504 55.440459,104.746336 61.8059146,102.429033 C62.0195204,102.429033 64.1395589,101.165538 62.654998,97.7890501 L62.441392,97.3696774 C59.1666462,93.5145045 57.5625707,88.4990434 57.9877093,83.4443524 C57.9877093,75.2181952 61.5923087,71.2072714 68.5932417,71.2072714 C69.4478102,71.1626997 70.3044639,71.2332183 71.140492,71.4169577 C68.8953505,75.0793166 67.856237,79.3619686 68.17137,83.6540387 C67.5454626,90.4853628 69.6002586,97.2919861 73.896008,102.617213 C73.896008,102.617213 75.8024405,104.515143 73.682402,105.568952 L70.7132802,106.832447 C65.0858856,109.627482 59.8158621,113.099201 55.0185873,117.171597 L46.954965,117.171597 L46.954965,117.193103 Z M117.683398,126.475693 C117.517931,127.435594 116.719179,128.149961 115.761766,128.194312 L60.6050289,128.194312 C59.5797721,128.12881 58.7593631,127.303941 58.6833977,126.262234 L58.6833977,123.684307 C58.6833977,119.387762 71.2951119,111.872912 79.42302,108.649134 C80.0635637,108.435675 81.9905776,106.930516 80.9194162,102.420512 C75.9438831,97.4074969 73.4342448,90.3943633 74.0779785,83.3022525 C74.0779785,72.5636253 78.780682,67.1943117 88.1860891,67.1943117 C97.3797758,67.1943117 102.2942,72.5636252 102.2942,83.3022525 C102.887369,90.3225538 100.380526,97.2476543 95.4527617,102.20158 C93.7410565,106.925043 96.3086143,108.430202 96.7338492,108.643661 C105.071683,111.648506 117.473472,119.382288 117.683398,123.678834 L117.683398,126.47022 L117.683398,126.475693 Z M127.67802,115.930931 C127.62582,116.612018 127.08004,117.150769 126.39816,117.194312 L118.278037,117.194312 C113.447338,113.12203 108.140356,109.650604 102.473374,106.856098 L99.6985502,105.592718 C97.5475243,104.5175 99.4834477,102.641246 99.4834477,102.641246 C103.723752,97.2610124 105.781909,90.481711 105.248197,83.6529099 C105.670103,79.3531741 104.615646,75.0379144 102.258271,71.4169377 C103.100157,71.2332149 103.962813,71.1627026 104.82337,71.2072702 C111.873357,71.2072702 115.503213,75.2178305 115.503213,83.4432425 C116.034966,88.5087606 114.406765,93.563773 111.018324,97.3673057 L110.593497,97.7920165 C109.098534,101.168199 111.233427,102.431579 111.448529,102.431579 C117.858587,104.754048 127.683398,110.447323 127.683398,113.823506 L127.683398,115.930931 L127.67802,115.930931 Z M130.683398,63.3666487 L130.683398,84.5335985 C130.683398,86.5196503 129.080024,88.1296634 127.102163,88.1296634 C125.124302,88.1296634 123.520928,86.5196503 123.520928,84.5335985 L123.520928,49.3002437 L52.8458669,49.3002437 L52.8458669,84.5982469 C52.8458669,86.5842986 51.2424935,88.1943117 49.2646323,88.1943117 C47.2867711,88.1943117 45.6833977,86.5842986 45.6833977,84.5982469 L45.6833977,45.744584 C45.7154959,43.7805484 47.3057689,42.2028426 49.2619497,42.1943117 L127.104846,42.1943117 C129.061027,42.2028426 130.651299,43.7805484 130.683398,45.744584 L130.683398,63.3450993 L130.683398,63.3666487 Z" id="形状" fill-rule="nonzero"></path>
        </g>
    </g>
</svg>