<?xml version="1.0" standalone="no"?><!DOCTYPE svg PUBLIC "-//W3C//DTD SVG 1.1//EN" "http://www.w3.org/Graphics/SVG/1.1/DTD/svg11.dtd"><svg t="1631243489005" class="icon" viewBox="0 0 1024 1024" version="1.1" xmlns="http://www.w3.org/2000/svg" p-id="6791" xmlns:xlink="http://www.w3.org/1999/xlink" width="200" height="200"><defs><style type="text/css"></style></defs><path d="M874.666667 874.453333H149.333333v-42.666666c0-11.733333 9.6-21.333333 21.333334-21.333334h682.666666c11.733333 0 21.333333 9.6 21.333334 21.333334v42.666666zM810.026667 306.773333L659.2 155.946667c-8.32-8.32-21.76-8.32-30.08 0L221.226667 563.626667l-13.226667 171.306666c-1.066667 13.013333 9.813333 23.893333 22.826667 22.826667l171.306666-13.226667 407.68-407.68c8.533333-8.32 8.533333-21.76 0.213334-30.08zM373.973333 697.386667l-103.466666 6.826666c-5.12 0.426667-9.386667-3.84-9.173334-9.173333l7.04-103.253333 279.04-279.04 105.6 105.6-279.04 279.04z m307.626667-307.626667L576 284.16l67.84-67.84 105.6 105.6-67.84 67.84z" fill="#8A8A8A" p-id="6792"></path></svg>
