<?xml version="1.0" standalone="no"?><!DOCTYPE svg PUBLIC "-//W3C//DTD SVG 1.1//EN" "http://www.w3.org/Graphics/SVG/1.1/DTD/svg11.dtd"><svg t="1631243531450" class="icon" viewBox="0 0 1024 1024" version="1.1" xmlns="http://www.w3.org/2000/svg" p-id="8470" xmlns:xlink="http://www.w3.org/1999/xlink" width="200" height="200"><defs><style type="text/css"></style></defs><path d="M880.213333 870.4h-716.8V153.6h318.293334V85.333333H146.346667c-28.16 0-51.2 23.04-51.2 51.2v750.933334c0 28.16 23.04 51.2 51.2 51.2h750.933333c28.16 0 51.2-23.04 51.2-51.2v-346.88h-68.266667V870.4z" fill="#8A8A8A" p-id="8471"></path><path d="M914.346667 763.733333c-18.773333 0-34.133333-15.36-34.133334-34.133333v-200.533333c0-18.773333 15.36-34.133333 34.133334-34.133334s34.133333 15.36 34.133333 34.133334v200.533333c0 18.773333-14.933333 34.133333-34.133333 34.133333zM504.746667 153.6h-89.6c-18.773333 0-34.133333-15.36-34.133334-34.133333s15.36-34.133333 34.133334-34.133334h89.6c18.773333 0 34.133333 15.36 34.133333 34.133334s-14.933333 34.133333-34.133333 34.133333zM693.333333 85.333333h220.16c19.2 0 34.986667 15.786667 34.986667 34.986667 0 19.2-15.786667 34.986667-34.986667 34.986667h-220.16c-19.2 0-34.986667-15.786667-34.986666-34.986667 0-19.2 15.36-34.986667 34.986666-34.986667z" fill="#8A8A8A" p-id="8472"></path><path d="M948.48 120.32v220.16c0 19.2-15.786667 34.986667-34.986667 34.986667-19.2 0-34.986667-15.786667-34.986666-34.986667V120.32c0-19.2 15.786667-34.986667 34.986666-34.986667 19.2 0 34.986667 15.786667 34.986667 34.986667z" fill="#8A8A8A" p-id="8473"></path><path d="M938.24 95.573333l0.426667 0.426667c13.226667 13.226667 13.226667 34.56 0 47.786667L491.52 590.933333c-13.226667 13.226667-34.56 13.226667-47.786667 0l-0.426666-0.426666c-13.226667-13.226667-13.226667-34.56 0-47.786667L890.453333 95.573333c13.226667-13.226667 34.56-13.226667 47.786667 0z" fill="#8A8A8A" p-id="8474"></path></svg>
