<svg xmlns="http://www.w3.org/2000/svg" width="62" height="51.502" viewBox="0 0 62 51.502">
  <g id="组_14030" data-name="组 14030" transform="translate(-702 -865.25)">
    <path id="路径_19263" data-name="路径 19263" d="M28.753,0C24.431,0,21.333,4.083,20,6.242,18.667,4.083,15.567,0,11.247,0,5.047,0,0,5.86,0,13.063c0,3.364,2.18,8.2,4.823,10.72,3.66,4.93,13.943,13.8,15.213,13.8,1.293,0,11.357-8.7,15.083-13.742,2.69-2.569,4.88-7.4,4.88-10.778C40,5.86,34.957,0,28.753,0Z" transform="translate(702 865.25)" fill="rgba(22,96,241,0.12)"/>
    <g id="组_12228" data-name="组 12228" transform="translate(662 820.993)">
      <path id="路径_19264" data-name="路径 19264" d="M82.815,95.835a1.139,1.139,0,0,1-.788-.314L65.082,79.241a9.82,9.82,0,0,1-.008-14.28,10.817,10.817,0,0,1,14.864-.008A1.044,1.044,0,0,1,79.87,66.4a1.153,1.153,0,0,1-1.508.065,8.517,8.517,0,0,0-11.7,0,7.732,7.732,0,0,0,0,11.244L83.6,93.991a1.044,1.044,0,0,1,.24,1.168,1.12,1.12,0,0,1-1.028.665Z" transform="translate(0 -0.076)" fill="rgba(22,96,241,0.12)"/>
      <path id="路径_19265" data-name="路径 19265" d="M427.856,95.759a1.12,1.12,0,0,1-1.028-.665,1.044,1.044,0,0,1,.24-1.168l16.944-16.279a7.733,7.733,0,0,0,0-11.246,8.518,8.518,0,0,0-11.706,0l-9.335,8.969a1.148,1.148,0,0,1-1.55-.025,1.041,1.041,0,0,1-.026-1.49l9.343-8.98a10.815,10.815,0,0,1,14.862,0,9.819,9.819,0,0,1,0,14.279L428.652,95.437A1.15,1.15,0,0,1,427.856,95.759Z" transform="translate(-346.676)" fill="rgba(22,96,241,0.12)"/>
    </g>
  </g>
</svg>
