<svg xmlns="http://www.w3.org/2000/svg" width="12.618" height="14" viewBox="0 0 12.618 14">
  <path id="路径_19513" data-name="路径 19513" d="M144.725,94.938h-3.048c.5-2.056.425-3.58-.213-4.5a1.6,1.6,0,0,0-1.17-.78h-.035a1.028,1.028,0,0,0-1.17,1.1v.071c0,.035-.035.071-.035.106,0,2.268-2.446,4.111-2.481,4.111a.322.322,0,0,0-.142.284v7.018c0,.922,1.1,1.311,1.666,1.311h5.281c.673,0,1.1-1.1,1.241-1.56,1.347-4.537,1.347-5.919,1.347-5.954a1.094,1.094,0,0,0-.354-.886A1.113,1.113,0,0,0,144.725,94.938Zm-.744,6.876a2.136,2.136,0,0,1-.567,1.063h-5.281c-.213,0-.957-.177-.957-.6V95.47c.567-.461,2.587-2.233,2.623-4.537,0-.071.035-.106.035-.177,0-.248.035-.425.461-.425a1.006,1.006,0,0,1,.638.5c.39.567.673,1.772,0,4.395a.362.362,0,0,0,.071.319.322.322,0,0,0,.284.142h3.544a.771.771,0,0,1,.39.106.567.567,0,0,1,.142.39C145.256,96.143,145.256,97.49,143.98,101.814Zm-8.471,1.063h-.957c-.071,0-.071-.035-.071-.106l-.425-7.053c0-.071.035-.071.071-.071h1.24a.354.354,0,1,0,0-.709h-1.24a.767.767,0,0,0-.78.815l.425,7.018a.794.794,0,0,0,.815.815h.957a.335.335,0,0,0,.354-.354A.364.364,0,0,0,135.51,102.877Z" transform="translate(-133.348 -89.657)" fill="#999"/>
</svg>
