<?xml version="1.0" standalone="no"?><!DOCTYPE svg PUBLIC "-//W3C//DTD SVG 1.1//EN" "http://www.w3.org/Graphics/SVG/1.1/DTD/svg11.dtd"><svg t="1631095514434" class="icon" viewBox="0 0 1024 1024" version="1.1" xmlns="http://www.w3.org/2000/svg" p-id="3590" xmlns:xlink="http://www.w3.org/1999/xlink" width="200" height="200"><defs><style type="text/css"></style></defs><path d="M868.2 712.3c-53.8 0-101.3 27.4-129.3 69l-440-207.7c8.2-18.9 12.7-39.7 12.7-61.6 0-22-4.6-42.9-12.8-61.9L615 255.6c28.6 34.2 71.6 56.1 119.6 56.1 85.9 0 155.8-69.9 155.8-155.8S820.5 0 734.6 0 578.8 69.9 578.8 155.8c0 22 4.6 42.9 12.8 61.9L275.4 412.3c-28.6-34.2-71.6-56.1-119.6-56.1C69.9 356.2 0 426.1 0 512s69.9 155.8 155.8 155.8c48 0 91-21.8 119.6-56.1l444.1 209.7c-4.6 14.8-7.2 30.4-7.2 46.7 0 85.9 69.9 155.8 155.8 155.8S1024 954.1 1024 868.2s-69.9-155.9-155.8-155.9zM734.6 44.5c61.4 0 111.3 49.9 111.3 111.3S796 267.1 734.6 267.1s-111.3-49.9-111.3-111.3S673.2 44.5 734.6 44.5zM155.8 623.3c-61.4 0-111.3-49.9-111.3-111.3s49.9-111.3 111.3-111.3S267.1 450.6 267.1 512s-49.9 111.3-111.3 111.3z m712.4 356.2c-61.4 0-111.3-49.9-111.3-111.3s49.9-111.3 111.3-111.3 111.3 49.9 111.3 111.3-50 111.3-111.3 111.3z" p-id="3591" fill="#bfbfbf"></path></svg>
