<?xml version="1.0" encoding="utf-8"?>
<!-- Generator: Adobe Illustrator 24.2.0, SVG Export Plug-In . SVG Version: 6.00 Build 0)  -->
<svg version="1.1" id="图层_1" xmlns="http://www.w3.org/2000/svg" xmlns:xlink="http://www.w3.org/1999/xlink" x="0px" y="0px"
	 viewBox="0 0 256 256" style="enable-background:new 0 0 256 256;" xml:space="preserve">
<style type="text/css">
	.st0{fill:#67C23A;}
</style>
<g>
	<path class="st0" d="M0,21.44c0-0.37,0.14-0.74,0.42-1.02C0.7,20.14,1.07,20,1.44,20h9.12c0.37,0,0.74,0.14,1.02,0.42
		C11.86,20.7,12,21.07,12,21.44V244h242.56c0.37,0,0.74,0.14,1.02,0.42c0.28,0.28,0.42,0.65,0.42,1.02v9.12
		c0,0.37-0.14,0.74-0.42,1.02c-0.28,0.28-0.65,0.42-1.02,0.42H0C0,256,0,21.44,0,21.44z"/>
	<path class="st0" d="M27.85,68.23c0-0.91,0.35-1.82,1.04-2.52c0.7-0.7,1.61-1.04,2.52-1.04h32.43c0.91,0,1.82,0.35,2.52,1.04
		c0.7,0.7,1.04,1.61,1.04,2.52v167.82H27.85C27.85,236.06,27.85,68.23,27.85,68.23z"/>
	<path class="st0" d="M146.15,117.67c0-0.91,0.35-1.82,1.04-2.52c0.7-0.7,1.61-1.04,2.52-1.04h32.43c0.91,0,1.82,0.35,2.52,1.04
		c0.7,0.7,1.04,1.61,1.04,2.52v118.39h-39.55V117.67z"/>
	<path class="st0" d="M74.62,162.69c0-0.97,0.37-1.95,1.11-2.69c0.74-0.74,1.71-1.11,2.69-1.11H113c0.97,0,1.95,0.37,2.69,1.11
		c0.74,0.74,1.11,1.71,1.11,2.69v73.54H74.62C74.62,236.23,74.62,162.69,74.62,162.69z"/>
	<path class="st0" d="M193.98,216.55c0-0.91,0.35-1.82,1.04-2.52s1.61-1.04,2.52-1.04h32.43c0.91,0,1.82,0.35,2.52,1.04
		c0.7,0.7,1.04,1.61,1.04,2.52v19.51h-39.55L193.98,216.55L193.98,216.55z"/>
</g>
</svg>
