<?xml version="1.0" encoding="utf-8"?>
<!-- Generator: Adobe Illustrator 24.2.0, SVG Export Plug-In . SVG Version: 6.00 Build 0)  -->
<svg version="1.1" id="图层_1" xmlns="http://www.w3.org/2000/svg" xmlns:xlink="http://www.w3.org/1999/xlink" x="0px" y="0px"
	 viewBox="0 0 256 256" style="enable-background:new 0 0 256 256;" xml:space="preserve">
<style type="text/css">
	.st0{fill:#999999;}
</style>
<g>
	<path class="st0" d="M138.83,124.16l100.04,51.49c3.53,1.82,7.91,0.18,9.26-3.57c5.09-13.81,7.87-28.76,7.87-44.35
		C256,61.29,205.57,6.66,140.97,0.16c-2.81-0.29-5.24,1.89-5.24,4.75v114.22C135.73,121.24,136.94,123.2,138.83,124.16
		L138.83,124.16z"/>
	<path class="st0" d="M122.48,127.77V5.66c0-3.32-2.85-5.92-6.16-5.64C50.01,6.05-1.74,62.75,0.04,131.19
		c1.78,68.12,57.52,123.5,125.5,124.78c46.76,0.89,87.89-23.37,110.94-60.2c1.64-2.6,0.71-6.07-2.03-7.49l-109.37-56.27
		C123.48,131.19,122.48,129.55,122.48,127.77z"/>
</g>
</svg>
