<?xml version="1.0" standalone="no"?><!DOCTYPE svg PUBLIC "-//W3C//DTD SVG 1.1//EN" "http://www.w3.org/Graphics/SVG/1.1/DTD/svg11.dtd"><svg t="1630575669549" class="icon" viewBox="0 0 1024 1024" version="1.1" xmlns="http://www.w3.org/2000/svg" p-id="5281" xmlns:xlink="http://www.w3.org/1999/xlink" width="200" height="200"><defs><style type="text/css"></style></defs><path d="M664.339692 9.137231H339.495385c-89.324308 0-161.634462 72.310154-161.634462 161.634461v682.456616c0 89.324308 72.310154 161.634462 161.634462 161.634461h345.00923c89.324308 0 161.634462-72.310154 161.634462-161.634461V190.936615c0-100.352-81.604923-181.799385-181.799385-181.799384z m89.639385 823.768615c0 66.796308-22.843077 89.639385-89.639385 89.639385H359.660308c-66.796308 0-89.639385-22.843077-89.639385-89.639385V190.936615c0-66.796308 22.843077-89.639385 89.639385-89.639384h62.857846c0.157538 16.541538 13.705846 29.932308 30.247384 29.932307h118.468924c16.699077 0 30.089846-13.390769 30.247384-29.932307h62.857846c66.796308 0 89.639385 22.843077 89.639385 89.639384v641.969231z m0 0" p-id="5282"></path><path d="M571.234462 815.261538h-118.468924c-16.699077 0-30.247385 21.425231-30.247384 38.124308s13.548308 38.124308 30.247384 38.124308h118.468924c16.699077 0 30.247385-21.425231 30.247384-38.124308 0-16.541538-13.548308-38.124308-30.247384-38.124308z m0 0" p-id="5283"></path></svg>