<?xml version="1.0" standalone="no"?><!DOCTYPE svg PUBLIC "-//W3C//DTD SVG 1.1//EN" "http://www.w3.org/Graphics/SVG/1.1/DTD/svg11.dtd"><svg t="1630575648279" class="icon" viewBox="0 0 1024 1024" version="1.1" xmlns="http://www.w3.org/2000/svg" p-id="4432" xmlns:xlink="http://www.w3.org/1999/xlink" width="200" height="200"><defs><style type="text/css"></style></defs><path d="M349.888 896h388.224c16.512 0 29.888 13.376 29.888 29.888v4.224a29.888 29.888 0 0 1-29.888 29.888H349.888A29.888 29.888 0 0 1 320 930.112v-4.224c0-16.512 13.376-29.888 29.888-29.888zM123.712 192h776.576c32.96 0 59.712 26.752 59.712 59.712v520.576a59.712 59.712 0 0 1-59.712 59.712H123.712A59.712 59.712 0 0 1 64 772.288V251.712C64 218.752 90.752 192 123.712 192zM128 256v512h768V256H128z" fill="#383E47" p-id="4433"></path></svg>