<?xml version="1.0" encoding="utf-8"?>
<svg width="20px" height="21px" viewBox="0 0 20 21" version="1.1" xmlns:xlink="http://www.w3.org/1999/xlink" xmlns="http://www.w3.org/2000/svg">
  <desc>Created with Lunacy</desc>
  <path d="M16.8742 11.7614L16.8742 10.7146C16.8742 10.6711 16.8385 10.6354 16.7949 10.6354L10.9625 10.6354C10.788 10.6354 10.6453 10.7781 10.6453 10.9526L10.6453 16.7949C10.6453 16.8386 10.681 16.8742 10.7246 16.8742L11.7714 16.8742C11.8328 16.8742 11.8704 16.9396 11.8407 16.9931L10.1497 19.9232C10.0883 20.0282 9.93562 20.0282 9.87411 19.9232L8.18309 16.9931C8.15335 16.9396 8.19101 16.8742 8.25252 16.8742L9.29921 16.8742C9.34285 16.8742 9.37848 16.8386 9.37848 16.7949L9.37848 10.9526C9.37848 10.7781 9.23577 10.6354 9.06129 10.6354L3.20718 10.6354C3.16353 10.6354 3.1278 10.6711 3.1278 10.7146L3.1278 11.7614C3.1278 11.8228 3.06243 11.8606 3.00884 11.8309L0.0787907 10.1378C-0.0262636 10.0763 -0.0262636 9.92375 0.0787907 9.86224L3.00884 8.17122C3.06243 8.14148 3.1278 8.17914 3.1278 8.24054L3.1278 9.28733C3.1278 9.33098 3.16353 9.3666 3.20718 9.3666L9.05936 9.3666C9.23384 9.3666 9.37655 9.22389 9.37655 9.04941L9.37655 3.20718C9.37655 3.16353 9.34082 3.1278 9.29728 3.1278L8.25049 3.1278C8.18908 3.1278 8.15132 3.06243 8.18106 3.00894L9.87218 0.0787907C9.93359 -0.0262636 10.0863 -0.0262636 10.1477 0.0787907L11.8388 3.00894C11.8685 3.06243 11.8308 3.1278 11.7694 3.1278L10.7227 3.1278C10.679 3.1278 10.6433 3.16353 10.6433 3.20718L10.6433 9.04941C10.6433 9.22389 10.7861 9.3666 10.9605 9.3666L16.7929 9.3666C16.8365 9.3666 16.8721 9.33098 16.8721 9.28733L16.8721 8.24054C16.8721 8.17914 16.9376 8.14148 16.9911 8.17122L19.9213 9.86224C20.0263 9.92375 20.0263 10.0763 19.9213 10.1378L16.9911 11.8288C16.9396 11.8606 16.8742 11.8228 16.8742 11.7614" id="Fill-1" fill="#FFFFFF" stroke="none" />
</svg>