
<svg width="326px" height="186px" viewBox="0 0 326 186" version="1.1" xmlns="http://www.w3.org/2000/svg" xmlns:xlink="http://www.w3.org/1999/xlink">
    <defs>
        <rect id="path-w9be7i7r5c-1" x="124" y="0" width="320" height="180" rx="4"></rect>
        <filter x="-1.4%" y="-2.5%" width="102.8%" height="105.0%" filterUnits="objectBoundingBox" id="filter-w9be7i7r5c-2">
            <feOffset dx="0" dy="0" in="SourceAlpha" result="shadowOffsetOuter1"></feOffset>
            <feGaussianBlur stdDeviation="1.5" in="shadowOffsetOuter1" result="shadowBlurOuter1"></feGaussianBlur>
            <feColorMatrix values="0 0 0 0 0   0 0 0 0 0.149019608   0 0 0 0 0.384313725  0 0 0 0.15 0" type="matrix" in="shadowBlurOuter1"></feColorMatrix>
        </filter>
    </defs>
    <g id="问卷题型设置" stroke="none" stroke-width="1" fill="none" fill-rule="evenodd">
        <g id="问卷管理-新建-基础设置step1" transform="translate(-301.000000, -797.000000)">
            <g id="编组" transform="translate(140.000000, 300.000000)">
                <g id="编组-4" transform="translate(40.000000, 85.000000)">
                    <g id="编组-12备份-6" transform="translate(0.000000, 415.000000)">
                        <g id="input">
                            <use fill="black" fill-opacity="1" filter="url(#filter-w9be7i7r5c-2)" xlink:href="#path-w9be7i7r5c-1"></use>
                            <use fill="#F9F9F9" fill-rule="evenodd" xlink:href="#path-w9be7i7r5c-1"></use>
                        </g>
                        <g id="上传图片" transform="translate(246.000000, 58.000000)" fill="#999999" fill-rule="nonzero">
                            <path d="M14.6051282,18.7076923 C15.5897436,18.7076923 16.4102564,17.8871795 16.4102564,16.9025641 C16.4102564,15.9179487 15.5897436,15.0974359 14.6051282,15.0974359 C13.6205128,15.0974359 12.8,15.9179487 12.8,16.9025641 C12.8,17.8871795 13.6205128,18.7076923 14.6051282,18.7076923 L14.6051282,18.7076923 Z M14.6051282,21.9897436 C11.8153846,21.9897436 9.51794872,19.6923077 9.51794872,16.9025641 C9.51794872,14.1128205 11.8153846,11.8153846 14.6051282,11.8153846 C17.3948718,11.8153846 19.6923077,14.1128205 19.6923077,16.9025641 C19.6923077,19.6923077 17.3948718,21.9897436 14.6051282,21.9897436 L14.6051282,21.9897436 Z" id="形状"></path>
                            <path d="M67.774359,54.974359 L67.774359,52.5128205 C67.774359,52.0205128 67.4461538,51.6923077 66.9538462,51.6923077 C66.4615385,51.6923077 66.1333333,52.0205128 66.1333333,52.5128205 L66.1333333,54.974359 L63.6717949,54.974359 C63.1794872,54.974359 62.8512821,55.3025641 62.8512821,55.7948718 C62.8512821,56.2871795 63.1794872,56.6153846 63.6717949,56.6153846 L66.1333333,56.6153846 L66.1333333,59.0769231 C66.1333333,59.5692308 66.4615385,59.8974359 66.9538462,59.8974359 C67.4461538,59.8974359 67.774359,59.5692308 67.774359,59.0769231 L67.774359,56.6153846 L70.2358974,56.6153846 C70.7282051,56.6153846 71.0564103,56.2871795 71.0564103,55.7948718 C71.0564103,55.3025641 70.7282051,54.974359 70.2358974,54.974359 L67.774359,54.974359 L67.774359,54.974359 Z M66.9538462,47.5897436 L66.9538462,42.6666667 L50.0512821,26.0923077 L32.3282051,45.4564103 L43.9794872,57.4358974 L58.9128205,57.4358974 C58.7487179,56.9435897 58.7487179,56.4512821 58.7487179,55.7948718 C58.7487179,51.3641026 62.3589744,47.5897436 66.9538462,47.5897436 Z M70.2358974,48.2461538 C73.1897436,49.5589744 75.1589744,52.3487179 75.1589744,55.7948718 C75.1589744,60.3897436 71.5487179,64 66.9538462,64 C64.3282051,64 61.8666667,62.6871795 60.3897436,60.7179487 L11.4871795,60.7179487 C5.08717949,60.7179487 0,55.6307692 0,49.2307692 L0,11.4871795 C0,5.08717949 5.08717949,0 11.4871795,0 L58.7487179,0 C65.1487179,0 70.2358974,5.08717949 70.2358974,11.4871795 L70.2358974,48.2461538 Z M3.28205128,37.0871795 L14.4410256,27.2410256 L29.8666667,43.1589744 L50.0512821,21.3333333 L66.9538462,38.0717949 L66.9538462,11.4871795 C66.9538462,6.89230769 63.3435897,3.28205128 58.7487179,3.28205128 L11.4871795,3.28205128 C6.89230769,3.28205128 3.28205128,6.89230769 3.28205128,11.4871795 L3.28205128,37.0871795 Z M3.28205128,41.5179487 L3.28205128,49.2307692 C3.28205128,53.825641 6.89230769,57.4358974 11.4871795,57.4358974 L39.3846154,57.4358974 L14.2769231,31.8358974 L3.28205128,41.5179487 Z" id="形状"></path>
                        </g>
                    </g>
                </g>
            </g>
        </g>
    </g>
</svg>