
<svg width="20px" height="9px" viewBox="0 0 20 9" version="1.1" xmlns="http://www.w3.org/2000/svg" xmlns:xlink="http://www.w3.org/1999/xlink">
    <defs>
        <polygon id="path-iq06lqup2t-1" points="0 0 20 0 20 9.00028449 0 9.00028449"></polygon>
    </defs>
    <g id="问卷题型设置" stroke="none" stroke-width="1" fill="none" fill-rule="evenodd">
        <g id="问卷管理-新建-题目设置" transform="translate(-230.000000, -909.000000)">
            <g id="编组-12" transform="translate(139.000000, 300.000000)">
                <g id="左" transform="translate(41.000000, 86.000000)">
                    <g id="分割线" transform="translate(40.000000, 510.000000)">
                        <g id="编组" transform="translate(10.000000, 13.000000)">
                            <mask id="mask-iq06lqup2t-2" fill="white">
                                <use xlink:href="#path-iq06lqup2t-1"></use>
                            </mask>
                            <g id="Clip-2"></g>
                            <path d="M19.3332489,9.00030093 L0.666652415,9.00030093 C0.298299823,9.00030093 0,8.70167222 0,8.33348407 C0,7.96546037 0.298299823,7.66683166 0.666652415,7.66683166 L19.3332489,7.66683166 C19.7016015,7.66683166 20.0000658,7.96546037 20.0000658,8.33348407 C20.0000658,8.70167222 19.7016015,9.00030093 19.3332489,9.00030093 M19.3332489,1.33346927 L0.666652415,1.33346927 C0.298299823,1.33346927 0,1.03484056 0,0.666652415 C0,0.298628709 0.298299823,0 0.666652415,0 L19.3332489,0 C19.7016015,0 20.0000658,0.298628709 20.0000658,0.666652415 C20.0000658,1.03500501 19.7016015,1.33346927 19.3332489,1.33346927" id="Fill-1" fill="#1660F1" mask="url(#mask-iq06lqup2t-2)"></path>
                        </g>
                    </g>
                </g>
            </g>
        </g>
    </g>
</svg>