<?xml version="1.0" encoding="utf-8"?>
<svg width="20px" height="19px" viewBox="0 0 20 19" version="1.1" xmlns:xlink="http://www.w3.org/1999/xlink" xmlns="http://www.w3.org/2000/svg">
  <desc>Created with Lunacy</desc>
  <defs>
    <path d="M0 0L20 0L20 18.3433L0 18.3433L0 0Z" id="path_1" />
    <clipPath id="mask_1">
      <use xlink:href="#path_1" />
    </clipPath>
  </defs>
  <g id="编组">
    <g id="编组">
      <path d="M0 0L20 0L20 18.3433L0 18.3433L0 0Z" id="Clip-2" fill="none" stroke="none" />
      <g clip-path="url(#mask_1)">
        <path d="M2.59533 0L17.4298 0C18.8491 0 20.0001 1.15102 20.0001 2.57023L20.0001 15.7733C20.0001 17.1925 18.8491 18.3435 17.4298 18.3435L2.59533 18.3435C1.17612 18.3435 0.025103 17.1925 0.025103 15.7733L0.025103 15.114C-0.00836766 14.9854 -0.00836766 14.857 0.025103 14.7228L0.025103 2.57023C0.025103 1.15102 1.17612 0 2.59533 0ZM17.4298 1.56454L2.59533 1.56454C2.03663 1.56454 1.58964 2.01153 1.58406 2.57023L1.58406 10.9067C1.95839 10.1579 2.32714 9.52097 2.69031 9.00689C3.3161 8.11291 3.93073 7.57652 4.56209 7.36984C5.14311 7.17988 5.71311 7.2637 6.22161 7.62129C7.93691 8.8281 9.95945 11.4487 10.9876 12.8677C11.1943 12.5717 11.4457 12.2252 11.7251 11.8788C12.8929 10.4205 13.9154 9.64384 14.8485 9.50981C15.4408 9.42599 15.9827 9.59363 16.4186 10.0014C17.1505 10.6831 17.8545 11.5437 18.4355 12.3314L18.4355 2.57023C18.4355 2.01711 17.983 1.56454 17.4298 1.56454Z" transform="translate(1.270423E-16 -8.582218E-05)" id="Fill-1" fill="#1660F1" fill-rule="evenodd" stroke="none" />
      </g>
    </g>
    <path d="M0 1.76007C0 2.73201 0.78799 3.52014 1.76007 3.52014C2.73215 3.52014 3.52 2.73201 3.52 1.76007C3.52 0.787991 2.73215 0 1.76007 0C0.78799 0 0 0.787991 0 1.76007" transform="translate(13.35107 3.575867)" id="Fill-3" fill="#1660F1" stroke="none" />
  </g>
</svg>