<?xml version="1.0" encoding="utf-8"?>
<svg width="20px" height="20px" viewBox="0 0 20 20" version="1.1" xmlns:xlink="http://www.w3.org/1999/xlink" xmlns="http://www.w3.org/2000/svg">
  <desc>Created with Lunacy</desc>
  <defs>
    <path d="M0 0L20 0L20 19.5344L0 19.5344L0 0Z" id="path_1" />
    <clipPath id="mask_1">
      <use xlink:href="#path_1" />
    </clipPath>
  </defs>
  <g id="编组">
    <path d="M0 0L20 0L20 19.5344L0 19.5344L0 0Z" id="Clip-2" fill="none" stroke="none" />
    <g clip-path="url(#mask_1)">
      <path d="M13.6657 1.68718L15.0801 0.272931C15.1061 0.273713 15.1278 0.253287 15.1286 0.227193L15.1286 0.224359C15.5381 -0.108901 16.136 -0.0662906 16.4943 0.321503L18.25 2.32145C18.5871 2.70905 18.5464 3.29641 18.1589 3.63348C18.1568 3.63524 18.155 3.637 18.1529 3.63866L16.64 5.00434L13.6642 1.68718L13.6657 1.68718ZM12.6179 3.13369C12.4294 2.95416 12.131 2.96149 11.9514 3.15011L2.43573 12.1186C2.34054 12.2062 2.28835 12.3309 2.29285 12.4601L2.29285 15.1958C2.29363 15.4646 2.51128 15.6822 2.78003 15.6829L5.5115 15.6829C5.6406 15.6874 5.7654 15.6353 5.85287 15.5401L15.1215 6.46727C15.1271 6.46189 15.1325 6.45642 15.1378 6.45085C15.3174 6.26223 15.31 5.96386 15.1215 5.78433L12.6343 3.15011C12.629 3.14454 12.6235 3.13897 12.6179 3.13369ZM20.0001 19.5344L0 19.5344L0 17.6315L20.0001 17.6315L20.0001 19.5344Z" id="Fill-1" fill="#67C23A" fill-rule="evenodd" stroke="none" />
    </g>
  </g>
</svg>