
<svg width="20px" height="19px" viewBox="0 0 20 19" version="1.1" xmlns="http://www.w3.org/2000/svg" xmlns:xlink="http://www.w3.org/1999/xlink">
    <defs>
        <polygon id="path-ccc98r-d66-1" points="0 0 20 0 20 18.5868986 0 18.5868986"></polygon>
    </defs>
    <g id="问卷题型设置" stroke="none" stroke-width="1" fill="none" fill-rule="evenodd">
        <g id="问卷管理-新建-题目设置" transform="translate(-230.000000, -849.000000)">
            <g id="编组-12" transform="translate(139.000000, 300.000000)">
                <g id="左" transform="translate(41.000000, 86.000000)">
                    <g id="备注说明" transform="translate(40.000000, 455.000000)">
                        <g id="编组" transform="translate(10.000000, 8.000000)">
                            <mask id="mask-ccc98r-d66-2" fill="white">
                                <use xlink:href="#path-ccc98r-d66-1"></use>
                            </mask>
                            <g id="Clip-2"></g>
                            <path d="M19.1806165,4.97625874 C19.6329879,4.97625874 20.000052,4.60902125 20.000052,4.15682324 L20.000052,0.819435498 C20.000052,0.366890714 19.6329879,0 19.1806165,0 C17.9103701,0 16.7680847,0.270486538 15.7856637,0.803483728 C14.8098315,1.33335992 13.9775652,2.09384322 13.3122724,3.06308665 C12.6660523,4.00632176 12.1764023,5.14444588 11.8573669,6.44659581 C11.5466542,7.71649543 11.3888703,9.15458219 11.3888703,10.7209767 L11.3888703,17.7674977 C11.3888703,18.2200425 11.7557611,18.5869332 12.2083058,18.5869332 L19.1802697,18.5869332 C19.6326411,18.5869332 19.9997052,18.2195224 19.9997052,17.7674977 L19.9997052,10.7209767 C19.9997052,10.2684319 19.6326411,9.90154117 19.1802697,9.90154117 L16.6026717,9.90154117 C16.7226568,6.63246861 17.5880403,4.97625874 19.1806165,4.97625874 M8.61118167,0.819435498 L8.61118167,4.15682324 C8.61118167,4.60936802 8.24429096,4.97625874 7.79174617,4.97625874 C6.17680283,4.97625874 5.29841514,6.63246861 5.1766962,9.90154117 L7.79174617,9.90154117 C8.24429096,9.90154117 8.61118167,10.2687787 8.61118167,10.7208033 L8.61118167,17.7674977 C8.61118167,18.2198691 8.24429096,18.5869332 7.79174617,18.5869332 L0.819435498,18.5869332 C0.366543936,18.5869332 0,18.2195224 0,17.7674977 L0,10.7208033 C0,9.15388863 0.157783814,7.71580188 0.468843332,6.44624904 C0.787878735,5.14444588 1.27752872,4.00632176 1.92392219,3.06308665 C2.58904165,2.09384322 3.42096115,1.33335992 4.39679335,0.803483728 C5.37921432,0.270486538 6.52149978,0 7.79209295,0 C8.24429096,0 8.61118167,0.366890714 8.61118167,0.819435498" id="Fill-1" fill="#1660F1" mask="url(#mask-ccc98r-d66-2)"></path>
                        </g>
                    </g>
                </g>
            </g>
        </g>
    </g>
</svg>