<?xml version="1.0" encoding="utf-8"?>
<svg width="20px" height="19px" viewBox="0 0 20 19" version="1.1" xmlns:xlink="http://www.w3.org/1999/xlink" xmlns="http://www.w3.org/2000/svg">
  <desc>Created with Lunacy</desc>
  <path d="M20 11.2C20 11.68 19.6 12 19.2 12L5.6 12L5.6 13.6L19.2 13.6C19.68 13.6 20 14 20 14.4L20 17.6C20 18.08 19.6 18.4 19.2 18.4L4.8 18.4C4.32 18.4 4 18 4 17.6L4 5.6L0.8 5.6C0.32 5.6 0 5.28 0 4.8L0 0.8C0 0.32 0.4 0 0.8 0L15.2 0C15.68 0 16 0.32 16 0.8L16 4.8C16 5.28 15.6 5.6 15.2 5.6L5.6 5.6L5.6 7.2L19.2 7.2C19.68 7.2 20 7.6 20 8L20 11.2ZM1.6001 4.00001L14.4001 4.00001L14.4001 1.60001L1.6001 1.60001L1.6001 4.00001ZM5.6001 10.4L18.4001 10.4L18.4001 8.79999L5.6001 8.79999L5.6001 10.4ZM18.4001 16.8L5.6001 16.8L5.6001 15.2L18.4001 15.2L18.4001 16.8Z" id="Fill-1" fill="#1660F1" fill-rule="evenodd" stroke="none" />
</svg>