<?xml version="1.0" encoding="utf-8"?>
<svg width="20px" height="20px" viewBox="0 0 20 20" version="1.1" xmlns:xlink="http://www.w3.org/1999/xlink" xmlns="http://www.w3.org/2000/svg">
  <desc>Created with Lunacy</desc>
  <defs>
    <path d="M0 0L20 0L20 19.4056L0 19.4056L0 0Z" id="path_1" />
    <clipPath id="mask_1">
      <use xlink:href="#path_1" />
    </clipPath>
  </defs>
  <g id="编组">
    <path d="M0 0L20 0L20 19.4056L0 19.4056L0 0Z" id="Clip-2" fill="none" stroke="none" />
    <g clip-path="url(#mask_1)">
      <path d="M9.41566 3.57717C9.41566 4.13141 8.96853 4.58002 8.41566 4.58002C7.86131 4.58002 7.41281 4.13141 7.41281 3.57717L7.41281 1.00137C7.41144 0.447132 7.85994 0 8.41566 0C8.96853 0 9.41566 0.447132 9.41566 1.00137L9.41566 3.57717ZM10.9657 4.02567C10.5757 4.41714 10.5757 5.05145 10.9657 5.4428C11.3557 5.83279 11.9913 5.83279 12.3829 5.4428L14.2013 3.62143C14.5928 3.23144 14.5928 2.59565 14.2013 2.20566C13.8114 1.81431 13.177 1.81431 12.7872 2.20566L10.9657 4.02567ZM5.50132 5.82001C5.89279 5.42854 5.89279 4.79423 5.50132 4.40425L3.67994 2.58424C3.28995 2.19288 2.65564 2.19288 2.26429 2.58424C1.87419 2.97423 1.87419 3.60854 2.26429 3.99852L4.08567 5.82001C4.47565 6.20989 5.11145 6.20989 5.50132 5.82001ZM4.57854 8.51855C4.57854 7.96431 4.12992 7.51706 3.57705 7.51706L1.00137 7.51706C0.447132 7.51706 0 7.96431 0 8.51706C0 9.07141 0.447132 9.51855 1.00137 9.51855L3.57705 9.51991C4.13141 9.51991 4.57854 9.07141 4.57854 8.51855ZM14.3443 14.88L12.4213 19.4056L8.30718 8.04141L19.7899 11.5442L15.3957 13.7557L20 18.0714L18.9471 19.1958L14.3443 14.88ZM4.78134 11C5.17133 10.61 5.80564 10.61 6.19711 11.0028C6.58846 11.3915 6.58846 12.0272 6.19848 12.4171L4.3771 14.237C3.98712 14.6286 3.35132 14.6286 2.96134 14.237C2.56998 13.8457 2.56998 13.2114 2.96134 12.8214L4.78134 11Z" id="Fill-1" fill="#1660F1" fill-rule="evenodd" stroke="none" />
    </g>
  </g>
</svg>