<?xml version="1.0" encoding="utf-8"?>
<svg width="20px" height="20px" viewBox="0 0 20 20" version="1.1" xmlns:xlink="http://www.w3.org/1999/xlink" xmlns="http://www.w3.org/2000/svg">
  <desc>Created with Lunacy</desc>
  <defs>
    <path d="M0 0L20 0L20 8.42415L0 8.42415L0 0Z" id="path_1" />
    <clipPath id="mask_1">
      <use xlink:href="#path_1" />
    </clipPath>
  </defs>
  <g id="编组">
    <path d="M0 19.1933L0 0.803524C0 0.36154 0.36154 0 0.80341 0C1.24528 0 1.60693 0.36154 1.60693 0.803524L1.60693 19.1933C1.60693 19.6351 1.24528 19.9967 0.80341 19.9967C0.36154 19.9967 0 19.6351 0 19.1933" transform="translate(9.197754 0.0005493164)" id="Fill-1" fill="#1660F1" stroke="none" />
    <path d="M9.39353 0.23936L6.00792 3.62497C5.69768 3.93292 5.69551 4.43284 5.99455 4.74753C6.30924 5.07342 6.8359 5.06667 7.15504 4.74753L9.73724 2.16761C9.86442 2.03815 10.0719 2.03815 10.2014 2.16761L12.826 4.79221C13.1362 5.10244 13.6361 5.10461 13.9508 4.8034C14.2766 4.48871 14.27 3.96194 13.9508 3.6428L10.5474 0.23936C10.2282 -0.0797868 9.71268 -0.0797868 9.39353 0.23936ZM19.1933 9.19548L0.80341 9.19548C0.36154 9.19548 0 9.55702 0 9.99889C0 10.4408 0.36154 10.8024 0.80341 10.8024L19.1933 10.8024C19.6351 10.8024 19.9967 10.4408 19.9967 9.99889C19.9967 9.55702 19.6351 9.19548 19.1933 9.19548ZM13.9619 16.3729L10.5763 19.7584C10.2573 20.0776 9.7417 20.0776 9.42255 19.7584L6.01912 16.355C5.69997 16.0358 5.69323 15.5092 6.01912 15.1945C6.33381 14.8932 6.83372 14.8954 7.14384 15.2057L9.76844 17.8302C9.8979 17.9596 10.1054 17.9596 10.2327 17.8302L12.8126 15.2502C13.1318 14.9311 13.6584 14.9245 13.9731 15.2502C14.2744 15.5649 14.2721 16.0649 13.9619 16.3729Z" transform="translate(0.002929688 0)" id="Fill-3" fill="#1660F1" fill-rule="evenodd" stroke="none" />
    <g id="编组" transform="translate(0 5.784485)">
      <path d="M0 0L20 0L20 8.42415L0 8.42415L0 0Z" id="Clip-6" fill="none" stroke="none" />
      <g clip-path="url(#mask_1)">
        <path d="M19.7607 3.62081L16.3751 0.235198C16.0671 -0.0750361 15.5672 -0.0772072 15.2525 0.221829C14.9266 0.53652 14.9334 1.06318 15.2525 1.38232L17.8324 3.96452C17.9619 4.0917 17.9619 4.29921 17.8324 4.42867L15.2079 7.05327C14.8976 7.3635 14.8954 7.86342 15.1967 8.17811C15.5113 8.50389 16.0381 8.49726 16.3573 8.17811L19.7607 4.77467C20.0798 4.45553 20.0798 3.93996 19.7607 3.62081ZM0.23936 4.80358L3.62269 8.18919C3.93292 8.49943 4.43284 8.50171 4.74753 8.20039C5.07342 7.8857 5.06667 7.35905 4.74753 7.0399L2.16761 4.45998C2.03815 4.33269 2.03815 4.12518 2.16761 3.99572L4.79221 1.37112C5.10244 1.061 5.10461 0.561087 4.80329 0.246396C4.48871 -0.0794925 3.96194 -0.0727508 3.6428 0.246396L0.23936 3.64983C-0.0797868 3.96898 -0.0797868 4.48455 0.23936 4.80358Z" transform="translate(-5.713339E-06 0)" id="Fill-5" fill="#1660F1" fill-rule="evenodd" stroke="none" />
      </g>
    </g>
  </g>
</svg>