
<svg width="20px" height="19px" viewBox="0 0 20 19" version="1.1" xmlns="http://www.w3.org/2000/svg" xmlns:xlink="http://www.w3.org/1999/xlink">
    <g id="问卷题型设置" stroke="none" stroke-width="1" fill="none" fill-rule="evenodd">
        <g id="问卷管理-新建-题目设置" transform="translate(-231.000000, -794.000000)" fill="#67C23A" fill-rule="nonzero">
            <g id="编组-12" transform="translate(139.000000, 300.000000)">
                <g id="左" transform="translate(41.000000, 86.000000)">
                    <g id="文件上传备份" transform="translate(40.000000, 400.000000)">
                        <g id="段落" transform="translate(11.000000, 8.000000)">
                            <path d="M2.61087029,10.6406699 C2.78758042,10.7094474 2.98457118,10.7039837 3.15719742,10.6255173 C3.32982365,10.5470508 3.46346827,10.4022256 3.52784262,10.2238644 L4.72740913,6.97278067 L4.72740913,6.98195037 L7.97349116,6.98195037 L9.17305769,10.2330341 C9.31732523,10.5955424 9.72204641,10.7795066 10.09003,10.6498397 C10.4550045,10.5141748 10.6435574,10.110716 10.5135045,9.74370431 L7.09319772,0.465611613 C6.98334284,0.15837995 6.67626381,-0.0326377246 6.35211737,0.00462460127 C6.02779304,-0.0290664321 5.72219146,0.162407231 5.61103702,0.46894605 L2.18822941,9.73453458 C2.11905473,9.9105474 2.12522487,10.107249 2.20529507,10.2785803 C2.28536526,10.4499116 2.43230379,10.5808264 2.61170389,10.6406699 L2.61087029,10.6406699 Z M6.35128377,2.55464128 L7.45665223,5.55147355 L5.24591531,5.55147355 L6.35128377,2.55464128 Z M19.2905969,16.92693 L0.717739249,16.92693 C0.324525553,16.9259949 0.00411871515,17.2423083 0,17.6355016 C0,17.8250255 0.0758941951,18.0066566 0.210766632,18.1398059 C0.345639068,18.2729553 0.528231194,18.3465238 0.717739249,18.3440711 L19.2905969,18.3440711 C19.681929,18.3440711 19.9991664,18.0268337 19.9991664,17.6355016 C19.9991664,17.2441694 19.681929,16.92693 19.2905969,16.92693 L19.2905969,16.92693 Z M13.5745248,1.42176366 L19.2914305,1.42176366 C19.6827626,1.42176366 20,1.10452627 20,0.713194128 C20,0.321861984 19.6827626,0.00462460127 19.2914305,0.00462460127 L13.5745248,0.00462460127 C13.1831927,0.00462460127 12.8659553,0.321861984 12.8659553,0.713194128 C12.8659553,1.10452627 13.1831927,1.42176366 13.5745248,1.42176366 Z M19.2914305,4.23270063 L13.5745248,4.23270063 C13.1831927,4.23270063 12.8659553,4.54993802 12.8659553,4.94127016 C12.8659553,5.3326023 13.1831927,5.64983969 13.5745248,5.64983969 L19.2914305,5.64983969 C19.6827626,5.64983969 20,5.3326023 20,4.94127016 C20,4.54993802 19.6827626,4.23270063 19.2914305,4.23270063 L19.2914305,4.23270063 Z M19.2914305,12.6880191 L0.717739249,12.6880191 C0.326178267,12.691093 0.00810811562,13.0050995 0,13.3965886 C0,13.5861125 0.0758941951,13.7677436 0.210766632,13.900893 C0.345639068,14.0340423 0.528231194,14.1076108 0.717739249,14.1051581 L19.2905969,14.1051581 C19.681929,14.1051581 19.9991664,13.7879207 19.9991664,13.3965886 C19.9991664,13.0052565 19.681929,12.6880191 19.2905969,12.6880191 L19.2914305,12.6880191 Z M19.2914305,8.45994304 L13.5745248,8.45994304 C13.1831927,8.45994304 12.8659553,8.77718042 12.8659553,9.16851256 C12.8659553,9.55984471 13.1831927,9.87708209 13.5745248,9.87708209 L19.2914305,9.87708209 C19.6827626,9.87708209 20,9.55984471 20,9.16851256 C20,8.77718042 19.6827626,8.45994304 19.2914305,8.45994304 L19.2914305,8.45994304 Z" id="形状"></path>
                        </g>
                    </g>
                </g>
            </g>
        </g>
    </g>
</svg>